M48
;Layer_Color=9474304
;FILE_FORMAT=2:4
INCH
;TYPE=PLATED
T1F00S00C0.0130
T2F00S00C0.0256
T3F00S00C0.0512
;TYPE=NON_PLATED
T4F00S00C0.0390
T5F00S00C0.0935
T6F00S00C0.0984
%
T01
X003400Y010150
X004591Y010841
X005064
X005536
X006009
Y011314
X005536
X005064
X004591
Y011786
X005064
Y012259
X004591
X005536
Y011786
X006009
Y012259
X006900Y013250
X003300Y013050
X000900Y013250
T02
X001000Y003450
X002600
X004500
X001000Y005450
Y007450
Y009450
X002500Y013050
T03
X008000Y008450
X009000
T04
X004000Y005550
X006000Y005950
Y005150
T05
X004000Y004550
X005250
Y006550
X004000
T06
X000984Y000984
X016016
Y016016
X000984
M30
