G04 Layer_Physical_Order=1*
G04 Layer_Color=255*
%FSLAX25Y25*%
%MOIN*%
G70*
G01*
G75*
%ADD10R,0.06000X0.03500*%
%ADD11R,0.03150X0.01575*%
%ADD12O,0.03150X0.01575*%
%ADD13C,0.03500*%
%ADD14R,0.03500X0.06000*%
%ADD15R,0.03150X0.02953*%
%ADD16R,0.02000X0.02500*%
%ADD17R,0.04331X0.04724*%
%ADD18O,0.02559X0.00787*%
%ADD19O,0.00787X0.02559*%
%ADD20R,0.18504X0.18504*%
%ADD21C,0.01575*%
%ADD22C,0.00787*%
%ADD23C,0.00902*%
%ADD24C,0.05000*%
%ADD25C,0.04331*%
%ADD26R,0.08858X0.08858*%
%ADD27C,0.08858*%
%ADD28C,0.02700*%
G36*
X42393Y105598D02*
X42748Y105248D01*
X42748D01*
X42972Y104748D01*
X42918Y104476D01*
Y104091D01*
X44339D01*
Y103591D01*
X44709D01*
Y102705D01*
X44801Y102244D01*
X44839Y102187D01*
Y101383D01*
X44882Y101392D01*
X45317Y101683D01*
X45452Y101592D01*
X45913Y101500D01*
X46374Y101592D01*
X46701Y101810D01*
X47027Y101592D01*
X47488Y101500D01*
X47949Y101592D01*
X48276Y101810D01*
X48602Y101592D01*
X49063Y101500D01*
X49524Y101592D01*
X49850Y101810D01*
X50177Y101592D01*
X50638Y101500D01*
X51099Y101592D01*
X51425Y101810D01*
X51752Y101592D01*
X52213Y101500D01*
X52673Y101592D01*
X53000Y101810D01*
X53327Y101592D01*
X53787Y101500D01*
X54248Y101592D01*
X54575Y101810D01*
X54901Y101592D01*
X55362Y101500D01*
X55823Y101592D01*
X56150Y101810D01*
X56476Y101592D01*
X56937Y101500D01*
X57348Y101582D01*
X57425Y101578D01*
X57581Y101496D01*
X57677Y100885D01*
X49497Y92704D01*
X41000D01*
X40539Y92613D01*
X40148Y92352D01*
X40148Y92352D01*
X36149Y88352D01*
X35887Y87961D01*
X35796Y87500D01*
X35796Y87500D01*
Y80818D01*
X35296Y80769D01*
X35294Y80780D01*
X35033Y81170D01*
X35033Y81170D01*
X33787Y82416D01*
Y85838D01*
X31204D01*
Y97001D01*
X33603Y99400D01*
X34000Y99321D01*
X34834Y99487D01*
X35541Y99959D01*
X36013Y100666D01*
X36179Y101500D01*
X36100Y101897D01*
X39837Y105634D01*
X41976D01*
X42248Y105688D01*
X42393Y105598D01*
D02*
G37*
G36*
X99000Y159404D02*
X98646Y159050D01*
X95500D01*
Y156300D01*
X95000D01*
Y155800D01*
X91000D01*
Y154500D01*
X90354D01*
X90000Y154854D01*
Y155800D01*
X82000D01*
Y154500D01*
X67000D01*
Y148287D01*
X66263D01*
Y140713D01*
X67000D01*
Y135500D01*
X67242D01*
X67596Y135146D01*
Y134132D01*
X67459Y134041D01*
X66987Y133334D01*
X66821Y132500D01*
X66987Y131666D01*
X67459Y130959D01*
X67596Y130868D01*
Y128850D01*
X67242Y128497D01*
X63000D01*
X62866Y128941D01*
Y135839D01*
X62866Y135839D01*
X62774Y136300D01*
X62513Y136690D01*
X62513Y136690D01*
X59165Y140038D01*
X59356Y140500D01*
X60700D01*
Y144000D01*
X58450D01*
Y141406D01*
X57988Y141215D01*
X54204Y144999D01*
Y146163D01*
X56787D01*
Y151237D01*
X49213D01*
Y150358D01*
X46709D01*
Y152303D01*
X46709Y152303D01*
Y152697D01*
X46709D01*
X46709Y152803D01*
Y158996D01*
X35291D01*
Y157051D01*
X28787D01*
Y158837D01*
X21213D01*
Y153763D01*
X28787D01*
Y154642D01*
X34630D01*
X34837Y154142D01*
X33148Y152454D01*
X32887Y152063D01*
X32796Y151602D01*
X32796Y151602D01*
Y144500D01*
X32796Y144500D01*
X32887Y144039D01*
X33148Y143649D01*
X34148Y142648D01*
X34148Y142648D01*
X34539Y142387D01*
X35000Y142296D01*
X35450D01*
Y139000D01*
X40950D01*
Y142296D01*
X42766D01*
X43263Y142287D01*
Y134713D01*
X48337D01*
Y136752D01*
X48837Y136960D01*
X52148Y133649D01*
X52148Y133649D01*
X52539Y133387D01*
X53000Y133296D01*
X54501D01*
X57308Y130489D01*
Y129804D01*
X56937Y129500D01*
X56476Y129408D01*
X56150Y129190D01*
X55823Y129408D01*
X55362Y129500D01*
X54901Y129408D01*
X54575Y129190D01*
X54248Y129408D01*
X53787Y129500D01*
X53327Y129408D01*
X53000Y129190D01*
X52673Y129408D01*
X52213Y129500D01*
X51752Y129408D01*
X51425Y129190D01*
X51099Y129408D01*
X50638Y129500D01*
X50177Y129408D01*
X49850Y129190D01*
X49524Y129408D01*
X49063Y129500D01*
X48602Y129408D01*
X48276Y129190D01*
X47949Y129408D01*
X47488Y129500D01*
X47027Y129408D01*
X46701Y129190D01*
X46374Y129408D01*
X45913Y129500D01*
X45452Y129408D01*
X45126Y129190D01*
X44799Y129408D01*
X44339Y129500D01*
X43878Y129408D01*
X43487Y129147D01*
X43226Y128756D01*
X43134Y128295D01*
Y126524D01*
X43188Y126252D01*
X42878Y125752D01*
X42748D01*
Y125622D01*
X42248Y125312D01*
X41976Y125366D01*
X39837D01*
X35100Y130103D01*
X35179Y130500D01*
X35013Y131334D01*
X34541Y132041D01*
X33834Y132513D01*
X33000Y132679D01*
X32603Y132600D01*
X23652Y141552D01*
X23261Y141813D01*
X22800Y141904D01*
X22800Y141904D01*
X18787D01*
Y143237D01*
X11213D01*
Y138163D01*
X11739D01*
X11930Y137701D01*
X8886Y134657D01*
X8166Y134513D01*
X7459Y134041D01*
X6987Y133334D01*
X6843Y132614D01*
X4534Y130305D01*
X4186Y129784D01*
X4064Y129169D01*
X4064Y129169D01*
Y120906D01*
X3746Y120694D01*
X3399Y120174D01*
X3276Y119559D01*
X3399Y118945D01*
X3484Y118817D01*
X3593Y118289D01*
X3198Y117698D01*
X3159Y117500D01*
X8180D01*
X8140Y117698D01*
X7745Y118289D01*
X7855Y118817D01*
X7940Y118945D01*
X8062Y119559D01*
X7940Y120174D01*
X7592Y120694D01*
X7275Y120906D01*
Y128504D01*
X9114Y130343D01*
X9834Y130487D01*
X10541Y130959D01*
X11013Y131666D01*
X11157Y132386D01*
X16135Y137365D01*
X16483Y137886D01*
X16538Y138163D01*
X18787D01*
Y139496D01*
X22301D01*
X30900Y130897D01*
X30821Y130500D01*
X30987Y129666D01*
X31459Y128959D01*
X32166Y128487D01*
X33000Y128321D01*
X33397Y128400D01*
X38487Y123310D01*
X38487Y123310D01*
X38878Y123049D01*
X39084Y123008D01*
X39000Y122587D01*
X39092Y122126D01*
X39310Y121799D01*
X39092Y121473D01*
X39000Y121012D01*
X38696Y120641D01*
X16289D01*
X16253Y120694D01*
X15733Y121043D01*
X15535Y121082D01*
Y122332D01*
X22000Y128797D01*
X22638Y128728D01*
X22894Y128394D01*
X23511Y127921D01*
X24229Y127623D01*
X25000Y127522D01*
X25771Y127623D01*
X26489Y127921D01*
X27106Y128394D01*
X27579Y129011D01*
X27877Y129729D01*
X27978Y130500D01*
X27877Y131271D01*
X27579Y131989D01*
X27106Y132606D01*
X26489Y133079D01*
X25771Y133377D01*
X25000Y133478D01*
X24229Y133377D01*
X23511Y133079D01*
X22894Y132606D01*
X22421Y131989D01*
X22303Y131704D01*
X22000D01*
X21539Y131613D01*
X21148Y131352D01*
X21148Y131351D01*
X13479Y123682D01*
X13218Y123292D01*
X13126Y122831D01*
X13126Y122831D01*
Y121082D01*
X12929Y121043D01*
X12408Y120694D01*
X12060Y120174D01*
X11938Y119559D01*
X12060Y118945D01*
X12145Y118817D01*
X12255Y118289D01*
X11860Y117698D01*
X11820Y117500D01*
X16841D01*
X16802Y117698D01*
X16739Y117792D01*
X16974Y118233D01*
X31376D01*
X31568Y117771D01*
X11056Y97259D01*
X10771Y97377D01*
X10000Y97478D01*
X9229Y97377D01*
X8511Y97079D01*
X7894Y96606D01*
X7421Y95989D01*
X7123Y95271D01*
X7022Y94500D01*
X7123Y93729D01*
X7421Y93011D01*
X7894Y92394D01*
X8511Y91921D01*
X9229Y91623D01*
X10000Y91522D01*
X10771Y91623D01*
X11489Y91921D01*
X11777Y91520D01*
X9149Y88891D01*
X8887Y88500D01*
X8796Y88040D01*
X8796Y88040D01*
Y77197D01*
X8511Y77079D01*
X7894Y76606D01*
X7421Y75989D01*
X7123Y75271D01*
X7022Y74500D01*
X7123Y73729D01*
X7421Y73011D01*
X7894Y72394D01*
X8511Y71921D01*
X9229Y71623D01*
X10000Y71522D01*
X10771Y71623D01*
X11489Y71921D01*
X12106Y72394D01*
X12579Y73011D01*
X12877Y73729D01*
X12978Y74500D01*
X12877Y75271D01*
X12579Y75989D01*
X12106Y76606D01*
X11489Y77079D01*
X11204Y77197D01*
Y87541D01*
X16334Y92670D01*
X16796Y92479D01*
Y62999D01*
X11056Y57259D01*
X10771Y57377D01*
X10000Y57478D01*
X9229Y57377D01*
X8511Y57079D01*
X7894Y56606D01*
X7421Y55989D01*
X7123Y55271D01*
X7022Y54500D01*
X7123Y53729D01*
X7421Y53011D01*
X7894Y52394D01*
X8511Y51921D01*
X9229Y51623D01*
X10000Y51522D01*
X10771Y51623D01*
X11489Y51921D01*
X12106Y52394D01*
X12579Y53011D01*
X12877Y53729D01*
X12978Y54500D01*
X12877Y55271D01*
X12759Y55556D01*
X18851Y61648D01*
X19113Y62039D01*
X19204Y62500D01*
X19204Y62500D01*
Y93314D01*
X19759Y93868D01*
X20221Y93677D01*
Y45424D01*
X11708Y36911D01*
X11489Y37079D01*
X10771Y37377D01*
X10000Y37478D01*
X9229Y37377D01*
X8511Y37079D01*
X7894Y36606D01*
X7421Y35989D01*
X7123Y35271D01*
X7022Y34500D01*
X7123Y33729D01*
X7421Y33011D01*
X7894Y32394D01*
X8511Y31921D01*
X9229Y31623D01*
X10000Y31522D01*
X10771Y31623D01*
X11489Y31921D01*
X12106Y32394D01*
X12579Y33011D01*
X12877Y33729D01*
X12978Y34500D01*
X12946Y34743D01*
X22277Y44074D01*
X22538Y44464D01*
X22629Y44925D01*
X22629Y44925D01*
Y94512D01*
X38586Y110469D01*
X39047Y110222D01*
X39000Y109988D01*
X39092Y109527D01*
X39310Y109201D01*
X39092Y108874D01*
X39000Y108413D01*
X39084Y107992D01*
X38878Y107951D01*
X38487Y107690D01*
X38487Y107690D01*
X34397Y103600D01*
X34000Y103679D01*
X33166Y103513D01*
X32459Y103041D01*
X31987Y102334D01*
X31821Y101500D01*
X31900Y101103D01*
X29149Y98352D01*
X28887Y97961D01*
X28796Y97500D01*
X28796Y97500D01*
Y85838D01*
X26213D01*
Y80763D01*
X32034D01*
X32977Y79820D01*
Y78450D01*
X30500D01*
Y75700D01*
Y72950D01*
X32977D01*
Y70689D01*
X31717Y69430D01*
X31456Y69039D01*
X31365Y68578D01*
X31365Y68578D01*
Y57799D01*
X31365Y57799D01*
X31456Y57338D01*
X31717Y56948D01*
X37148Y51517D01*
X37148Y51517D01*
X37539Y51256D01*
X38000Y51164D01*
X38179Y50728D01*
X38192Y50664D01*
X37245Y50272D01*
X36104Y49396D01*
X35228Y48255D01*
X34678Y46926D01*
X34490Y45500D01*
X34678Y44074D01*
X35228Y42745D01*
X36104Y41604D01*
X37245Y40729D01*
X38574Y40178D01*
X40000Y39990D01*
X41426Y40178D01*
X42755Y40729D01*
X43896Y41604D01*
X44179Y41972D01*
X44652Y41812D01*
Y37433D01*
X44229Y37377D01*
X43511Y37079D01*
X42894Y36606D01*
X42421Y35989D01*
X42123Y35271D01*
X42022Y34500D01*
X42123Y33729D01*
X42421Y33011D01*
X42894Y32394D01*
X43511Y31921D01*
X44229Y31623D01*
X45000Y31522D01*
X45771Y31623D01*
X46489Y31921D01*
X47106Y32394D01*
X47579Y33011D01*
X47877Y33729D01*
X47978Y34500D01*
X47877Y35271D01*
X47579Y35989D01*
X47106Y36606D01*
X47060Y36641D01*
Y43051D01*
X47561Y43150D01*
X47728Y42745D01*
X48604Y41604D01*
X49745Y40729D01*
X51074Y40178D01*
X52500Y39990D01*
X53926Y40178D01*
X55255Y40729D01*
X56396Y41604D01*
X57272Y42745D01*
X57822Y44074D01*
X58010Y45500D01*
X57822Y46926D01*
X57272Y48255D01*
X56396Y49396D01*
X55793Y49859D01*
X55909Y50400D01*
X56387Y50598D01*
X56810Y50923D01*
X57251Y50807D01*
X57269Y50799D01*
X57354Y50732D01*
X57608Y50119D01*
X58047Y49547D01*
X58619Y49108D01*
X59285Y48832D01*
X60000Y48738D01*
X60715Y48832D01*
X61381Y49108D01*
X61953Y49547D01*
X62392Y50119D01*
X62668Y50785D01*
X62762Y51500D01*
X62668Y52215D01*
X62392Y52881D01*
X61953Y53453D01*
X61381Y53892D01*
X60715Y54168D01*
X60000Y54262D01*
X59285Y54168D01*
X58619Y53892D01*
X58203Y53572D01*
X57737Y53702D01*
X57661Y53763D01*
X57402Y54387D01*
X56961Y54961D01*
X56476Y55334D01*
X56422Y55688D01*
X56450Y55917D01*
X56829Y56171D01*
X57390Y57010D01*
X57481Y57464D01*
X58015Y57589D01*
X58047Y57547D01*
X58619Y57108D01*
X59285Y56832D01*
X60000Y56738D01*
X60715Y56832D01*
X61381Y57108D01*
X61953Y57547D01*
X62392Y58119D01*
X62668Y58785D01*
X62762Y59500D01*
X62668Y60215D01*
X62392Y60881D01*
X61953Y61453D01*
X61381Y61892D01*
X60715Y62168D01*
X60000Y62262D01*
X59285Y62168D01*
X58619Y61892D01*
X58047Y61453D01*
X57608Y60881D01*
X57332Y60215D01*
X57306Y60016D01*
X57031Y59908D01*
X56781Y59861D01*
X55990Y60390D01*
X55708Y60446D01*
X55584Y60981D01*
X56396Y61604D01*
X57272Y62745D01*
X57822Y64074D01*
X58010Y65500D01*
X57822Y66926D01*
X57272Y68255D01*
X56396Y69396D01*
X55255Y70272D01*
X53926Y70822D01*
X52500Y71010D01*
X51074Y70822D01*
X49745Y70272D01*
X48604Y69396D01*
X47728Y68255D01*
X47695Y68173D01*
X47204Y68271D01*
Y73163D01*
X50787D01*
Y78237D01*
X44966D01*
X43153Y80050D01*
X43360Y80550D01*
X46500D01*
Y83300D01*
Y86050D01*
X43906D01*
X43715Y86512D01*
X44499Y87296D01*
X53000D01*
X53000Y87296D01*
X53461Y87388D01*
X53851Y87648D01*
X62513Y96310D01*
X62513Y96310D01*
X62774Y96701D01*
X62866Y97162D01*
X62866Y97162D01*
Y102353D01*
X63000Y102797D01*
X72796D01*
Y97999D01*
X63148Y88352D01*
X62887Y87961D01*
X62796Y87500D01*
X62796Y87500D01*
Y85838D01*
X60213D01*
Y80763D01*
X67787D01*
Y85838D01*
X65204D01*
Y87001D01*
X74852Y96649D01*
X74852Y96649D01*
X75113Y97039D01*
X75204Y97500D01*
X75204Y97500D01*
Y102797D01*
X84000D01*
Y102200D01*
X92000D01*
Y102797D01*
X94000D01*
Y128497D01*
X93550Y128500D01*
Y132000D01*
X90800D01*
Y133000D01*
X93550D01*
Y135500D01*
X98646D01*
X99000Y135146D01*
X99000Y2431D01*
X98646Y2077D01*
X15610D01*
X15431Y2577D01*
X16352Y3333D01*
X17497Y4728D01*
X18348Y6320D01*
X18871Y8047D01*
X19048Y9843D01*
X18871Y11638D01*
X18348Y13365D01*
X17497Y14957D01*
X16352Y16352D01*
X14957Y17497D01*
X13365Y18348D01*
X11638Y18871D01*
X9843Y19048D01*
X8047Y18871D01*
X6320Y18348D01*
X4728Y17497D01*
X3333Y16352D01*
X2577Y15431D01*
X2077Y15610D01*
Y27445D01*
X2577Y27652D01*
X5865Y24365D01*
X5865Y24365D01*
X6385Y24017D01*
X7000Y23894D01*
X7000Y23894D01*
X61000D01*
X61000Y23894D01*
X61615Y24017D01*
X62135Y24365D01*
X81135Y43365D01*
X81135Y43365D01*
X81483Y43886D01*
X81606Y44500D01*
X81606Y44500D01*
Y48163D01*
X83787D01*
Y53237D01*
X76213D01*
Y48163D01*
X78394D01*
Y45165D01*
X60335Y27106D01*
X7665D01*
X4995Y29775D01*
Y102835D01*
X15027Y112866D01*
X16693D01*
Y116016D01*
X16693Y116016D01*
X16767Y116251D01*
X16802Y116303D01*
X16841Y116500D01*
X11820D01*
X11860Y116303D01*
X11969Y116016D01*
X11969Y116016D01*
X11969Y116016D01*
Y114349D01*
X2577Y104958D01*
X2077Y105166D01*
Y154390D01*
X2577Y154569D01*
X3333Y153648D01*
X4728Y152503D01*
X6320Y151653D01*
X8047Y151129D01*
X9843Y150952D01*
X10500Y151016D01*
X11000Y150563D01*
Y148800D01*
X14500D01*
Y151050D01*
X13102D01*
X13028Y151550D01*
X13365Y151653D01*
X14957Y152503D01*
X16352Y153648D01*
X17497Y155043D01*
X18348Y156635D01*
X18871Y158361D01*
X19048Y160158D01*
X18871Y161953D01*
X18348Y163680D01*
X17497Y165272D01*
X16352Y166667D01*
X15431Y167423D01*
X15610Y167923D01*
X99000D01*
Y159404D01*
D02*
G37*
%LPC*%
G36*
X90500Y89910D02*
Y85000D01*
X95410D01*
X95289Y85917D01*
X94742Y87238D01*
X93872Y88372D01*
X92738Y89242D01*
X91417Y89789D01*
X90500Y89910D01*
D02*
G37*
G36*
X51000Y86050D02*
X47500D01*
Y83800D01*
X51000D01*
Y86050D01*
D02*
G37*
G36*
X95410Y84000D02*
X90500D01*
Y79090D01*
X91417Y79211D01*
X92738Y79758D01*
X93872Y80628D01*
X94742Y81762D01*
X95289Y83083D01*
X95410Y84000D01*
D02*
G37*
G36*
X51000Y82800D02*
X47500D01*
Y80550D01*
X51000D01*
Y82800D01*
D02*
G37*
G36*
X92000Y101200D02*
X88500D01*
Y98950D01*
X92000D01*
Y101200D01*
D02*
G37*
G36*
X43839Y103091D02*
X42918D01*
Y102705D01*
X43026Y102161D01*
X43334Y101700D01*
X43795Y101392D01*
X43839Y101383D01*
Y103091D01*
D02*
G37*
G36*
X89500Y89910D02*
X88583Y89789D01*
X87262Y89242D01*
X86128Y88372D01*
X85716Y87836D01*
X85216Y88006D01*
Y89717D01*
X74783D01*
Y79283D01*
X78394D01*
Y60838D01*
X76213D01*
Y55763D01*
X83787D01*
Y60838D01*
X81606D01*
Y79283D01*
X85216D01*
Y80994D01*
X85716Y81164D01*
X86128Y80628D01*
X87262Y79758D01*
X88583Y79211D01*
X89500Y79090D01*
Y84500D01*
Y89910D01*
D02*
G37*
G36*
X87500Y101200D02*
X84000D01*
Y98950D01*
X87500D01*
Y101200D01*
D02*
G37*
G36*
X68000Y78450D02*
X64500D01*
Y76200D01*
X68000D01*
Y78450D01*
D02*
G37*
G36*
X25500Y37627D02*
X25174Y37584D01*
X24404Y37265D01*
X23742Y36758D01*
X23235Y36096D01*
X22916Y35326D01*
X22873Y35000D01*
X25500D01*
Y37627D01*
D02*
G37*
G36*
X26500D02*
Y35000D01*
X29127D01*
X29084Y35326D01*
X28765Y36096D01*
X28258Y36758D01*
X27596Y37265D01*
X26826Y37584D01*
X26500Y37627D01*
D02*
G37*
G36*
X25500Y34000D02*
X22873D01*
X22916Y33674D01*
X23235Y32904D01*
X23742Y32243D01*
X24404Y31735D01*
X25174Y31416D01*
X25500Y31373D01*
Y34000D01*
D02*
G37*
G36*
X29127D02*
X26500D01*
Y31373D01*
X26826Y31416D01*
X27596Y31735D01*
X28258Y32243D01*
X28765Y32904D01*
X29084Y33674D01*
X29127Y34000D01*
D02*
G37*
G36*
X29500Y75200D02*
X26000D01*
Y72950D01*
X29500D01*
Y75200D01*
D02*
G37*
G36*
Y78450D02*
X26000D01*
Y76200D01*
X29500D01*
Y78450D01*
D02*
G37*
G36*
X63500D02*
X60000D01*
Y76200D01*
X63500D01*
Y78450D01*
D02*
G37*
G36*
Y75200D02*
X60000D01*
Y72950D01*
X63500D01*
Y75200D01*
D02*
G37*
G36*
X68000D02*
X64500D01*
Y72950D01*
X68000D01*
Y75200D01*
D02*
G37*
G36*
X8180Y116500D02*
X3159D01*
X3198Y116303D01*
X3593Y115711D01*
X3484Y115183D01*
X3399Y115055D01*
X3276Y114441D01*
X3399Y113827D01*
X3746Y113306D01*
X4267Y112958D01*
X4882Y112835D01*
X6457D01*
X7071Y112958D01*
X7592Y113306D01*
X7940Y113827D01*
X8062Y114441D01*
X7940Y115055D01*
X7855Y115183D01*
X7745Y115711D01*
X8140Y116303D01*
X8180Y116500D01*
D02*
G37*
G36*
X52500Y155800D02*
X49000D01*
Y153550D01*
X52500D01*
Y155800D01*
D02*
G37*
G36*
X57000D02*
X53500D01*
Y153550D01*
X57000D01*
Y155800D01*
D02*
G37*
G36*
X24500Y151450D02*
X21000D01*
Y149200D01*
X24500D01*
Y151450D01*
D02*
G37*
G36*
X29000D02*
X25500D01*
Y149200D01*
X29000D01*
Y151450D01*
D02*
G37*
G36*
X52500Y159050D02*
X49000D01*
Y156800D01*
X52500D01*
Y159050D01*
D02*
G37*
G36*
X90000D02*
X86500D01*
Y156800D01*
X90000D01*
Y159050D01*
D02*
G37*
G36*
X94500D02*
X91000D01*
Y156800D01*
X94500D01*
Y159050D01*
D02*
G37*
G36*
X57000D02*
X53500D01*
Y156800D01*
X57000D01*
Y159050D01*
D02*
G37*
G36*
X85500D02*
X82000D01*
Y156800D01*
X85500D01*
Y159050D01*
D02*
G37*
G36*
X19000Y151050D02*
X15500D01*
Y148800D01*
X19000D01*
Y151050D01*
D02*
G37*
G36*
X63950Y144000D02*
X61700D01*
Y140500D01*
X63950D01*
Y144000D01*
D02*
G37*
G36*
X60700Y148500D02*
X58450D01*
Y145000D01*
X60700D01*
Y148500D01*
D02*
G37*
G36*
X37700Y138000D02*
X35450D01*
Y134500D01*
X37700D01*
Y138000D01*
D02*
G37*
G36*
X40950D02*
X38700D01*
Y134500D01*
X40950D01*
Y138000D01*
D02*
G37*
G36*
X63950Y148500D02*
X61700D01*
Y145000D01*
X63950D01*
Y148500D01*
D02*
G37*
G36*
X24500Y148200D02*
X21000D01*
Y145950D01*
X24500D01*
Y148200D01*
D02*
G37*
G36*
X29000D02*
X25500D01*
Y145950D01*
X29000D01*
Y148200D01*
D02*
G37*
G36*
X14500Y147800D02*
X11000D01*
Y145550D01*
X14500D01*
Y147800D01*
D02*
G37*
G36*
X19000D02*
X15500D01*
Y145550D01*
X19000D01*
Y147800D01*
D02*
G37*
%LPD*%
D10*
X80000Y58300D02*
D03*
Y50700D02*
D03*
X88000Y109300D02*
D03*
Y101700D02*
D03*
X30000Y83300D02*
D03*
Y75700D02*
D03*
X64000Y83300D02*
D03*
Y75700D02*
D03*
X47000Y83300D02*
D03*
Y75700D02*
D03*
X76000Y125700D02*
D03*
Y133300D02*
D03*
X86000Y148700D02*
D03*
Y156300D02*
D03*
X95000Y148700D02*
D03*
Y156300D02*
D03*
X15000Y140700D02*
D03*
Y148300D02*
D03*
X53000Y156300D02*
D03*
Y148700D02*
D03*
X25000D02*
D03*
Y156300D02*
D03*
D11*
X14331Y114441D02*
D03*
D12*
Y117000D02*
D03*
Y119559D02*
D03*
X5669Y114441D02*
D03*
Y117000D02*
D03*
Y119559D02*
D03*
D13*
X45000Y58000D02*
D03*
Y53000D02*
D03*
X50000D02*
D03*
X55000D02*
D03*
Y58000D02*
D03*
X50000D02*
D03*
D14*
X83200Y132500D02*
D03*
X90800D02*
D03*
X68800Y144500D02*
D03*
X61200D02*
D03*
X45800Y138500D02*
D03*
X38200D02*
D03*
D15*
X80000Y109843D02*
D03*
Y115157D02*
D03*
X85000Y144158D02*
D03*
Y138843D02*
D03*
D16*
X74000Y115236D02*
D03*
Y119764D02*
D03*
D17*
X43756Y149154D02*
D03*
Y155847D02*
D03*
X38244D02*
D03*
Y149154D02*
D03*
D18*
X41091Y124162D02*
D03*
Y122587D02*
D03*
Y121012D02*
D03*
Y119437D02*
D03*
Y117862D02*
D03*
Y116287D02*
D03*
Y114713D02*
D03*
Y113138D02*
D03*
Y111563D02*
D03*
Y109988D02*
D03*
Y108413D02*
D03*
Y106839D02*
D03*
X64909D02*
D03*
Y108413D02*
D03*
Y109988D02*
D03*
Y111563D02*
D03*
Y113138D02*
D03*
Y114713D02*
D03*
Y116288D02*
D03*
Y117862D02*
D03*
Y119437D02*
D03*
Y121012D02*
D03*
Y122587D02*
D03*
Y124162D02*
D03*
D19*
X44339Y103591D02*
D03*
X45913D02*
D03*
X47488D02*
D03*
X49063D02*
D03*
X50638D02*
D03*
X52213D02*
D03*
X53787D02*
D03*
X55362D02*
D03*
X56937D02*
D03*
X58512D02*
D03*
X60087D02*
D03*
X61661D02*
D03*
Y127410D02*
D03*
X60087D02*
D03*
X58512D02*
D03*
X56937D02*
D03*
X55362D02*
D03*
X53787D02*
D03*
X52213D02*
D03*
X50638D02*
D03*
X49063D02*
D03*
X47488D02*
D03*
X45913D02*
D03*
X44339D02*
D03*
D20*
X53000Y115500D02*
D03*
D21*
X80000Y44500D02*
Y50700D01*
Y58300D02*
Y84500D01*
X15000Y138500D02*
Y140700D01*
X87458Y109843D02*
X88000Y109300D01*
X5669Y119559D02*
Y129169D01*
X9000Y132500D01*
X15000Y138500D01*
X7000Y25500D02*
X61000D01*
X80000Y44500D01*
X3390Y29110D02*
Y103500D01*
Y29110D02*
X7000Y25500D01*
X3390Y103500D02*
X14331Y114441D01*
D22*
X41000Y80500D02*
Y85500D01*
X45800Y75700D02*
X47000D01*
X41000Y80500D02*
X45800Y75700D01*
X41000Y85500D02*
X44000Y88500D01*
X53000D01*
X10000Y94500D02*
X33362Y117862D01*
X10000Y54500D02*
X18000Y62500D01*
X60087Y127410D02*
Y133413D01*
X61661Y97162D02*
Y103591D01*
X53000Y88500D02*
X61661Y97162D01*
X37000Y87500D02*
X41000Y91500D01*
X49995D01*
X60087Y101591D01*
Y103591D01*
X64000Y87500D02*
X74000Y97500D01*
X64000Y83300D02*
Y87500D01*
X67661Y124162D02*
X68800Y125300D01*
X64909Y124162D02*
X67661D01*
X30000Y83300D02*
Y97500D01*
X33362Y117862D02*
X41091D01*
X14453Y119437D02*
X41091D01*
X10000Y34500D02*
X11000D01*
X14331Y119559D02*
X14453Y119437D01*
X14331Y119559D02*
Y122831D01*
X22000Y130500D01*
X25000D01*
X11000Y34500D02*
X21425Y44925D01*
X72098Y117862D02*
X74000Y119764D01*
X64909Y117862D02*
X72098D01*
X64909Y116288D02*
X72949D01*
X74000Y115236D01*
X64909Y113138D02*
X66909D01*
X74000Y106047D01*
Y97500D02*
Y106047D01*
X64909Y114713D02*
X69787D01*
X74657Y109843D01*
X80000D01*
X74000Y119764D02*
X76000Y121764D01*
Y125700D01*
X39339Y124162D02*
X41091D01*
X15000Y140700D02*
X22800D01*
X44339Y103591D02*
Y106839D01*
X45913Y108413D01*
X56937Y119437D02*
X58512Y121012D01*
X64909Y122587D02*
Y124162D01*
X38248Y116287D02*
X41091D01*
X10000Y74500D02*
Y88040D01*
X38900Y114713D02*
X41091D01*
X18000Y62500D02*
Y93813D01*
X39552Y113138D02*
X41091D01*
X21425Y44925D02*
Y95011D01*
X10000Y88040D02*
X38248Y116287D01*
X18000Y93813D02*
X38900Y114713D01*
X21425Y95011D02*
X39552Y113138D01*
X30000Y97500D02*
X34000Y101500D01*
X39339Y106839D01*
X41091D01*
X22800Y140700D02*
X33000Y130500D01*
X39339Y124162D01*
X68800Y125300D02*
Y144500D01*
X37574Y59644D02*
X43356D01*
X45000Y58000D01*
X50000Y53000D01*
X46000Y62000D02*
X50000Y58000D01*
X46000Y62000D02*
Y74700D01*
X47000Y75700D01*
X64000Y59071D02*
Y75700D01*
X59561Y54632D02*
X64000Y59071D01*
X56632Y54632D02*
X59561D01*
X55000Y53000D02*
X56632Y54632D01*
X45000Y52368D02*
Y53000D01*
Y34500D02*
X45856Y35356D01*
Y52144D01*
X45000Y53000D02*
X45856Y52144D01*
X37000Y70782D02*
Y87500D01*
X34144Y63074D02*
Y67926D01*
Y63074D02*
X37574Y59644D01*
X34144Y67926D02*
X37000Y70782D01*
X32569Y68578D02*
X34181Y70190D01*
X32569Y57799D02*
Y68578D01*
Y57799D02*
X38000Y52368D01*
X45000D01*
X30000Y83300D02*
X31200D01*
X34181Y80319D01*
Y70190D02*
Y80319D01*
X58512Y127410D02*
Y130988D01*
X61661Y127410D02*
Y135839D01*
X45800Y138500D02*
X49000D01*
X53000Y134500D01*
X55000D01*
X58512Y130988D01*
X50000Y143500D02*
X60087Y133413D01*
X35000Y143500D02*
X50000D01*
X34000Y144500D02*
X35000Y143500D01*
X34000Y144500D02*
Y151602D01*
X38244Y155847D01*
X25453D02*
X38244D01*
X25000Y156300D02*
X25453Y155847D01*
X53000Y144500D02*
X61661Y135839D01*
X53000Y144500D02*
Y148700D01*
X52547Y149154D02*
X53000Y148700D01*
X43756Y149154D02*
X52547D01*
X55362Y117862D02*
X56937Y119437D01*
X58512Y121012D02*
X64909D01*
X56937Y119437D02*
X64909D01*
D23*
X80000Y109843D02*
X87458D01*
X74000Y115236D02*
X79921D01*
X80000Y115157D01*
X85000Y144158D02*
Y148700D01*
X86000Y149700D01*
X83200Y132500D02*
X83600Y132900D01*
X83200Y132500D02*
Y133300D01*
Y137043D01*
X85000Y138843D01*
X76000Y133300D02*
X83200D01*
D24*
X108261Y146500D02*
X114400Y140361D01*
X86000Y146500D02*
X108261D01*
X114400Y72965D02*
Y140361D01*
D25*
X10000Y34500D02*
D03*
X26000D02*
D03*
X10000Y54500D02*
D03*
Y74500D02*
D03*
Y94500D02*
D03*
X25000Y130500D02*
D03*
X45000Y34500D02*
D03*
D26*
X80000Y84500D02*
D03*
D27*
X90000D02*
D03*
D28*
X34000Y101500D02*
D03*
X9000Y132500D02*
D03*
X33000Y130500D02*
D03*
X69000Y132500D02*
D03*
X45913Y122587D02*
D03*
X50638D02*
D03*
X55362D02*
D03*
X60087D02*
D03*
X45913Y117862D02*
D03*
X50638D02*
D03*
X55362D02*
D03*
X60087D02*
D03*
X45913Y113138D02*
D03*
X50638D02*
D03*
X55362D02*
D03*
X60087D02*
D03*
X45913Y108413D02*
D03*
X50638D02*
D03*
X55362D02*
D03*
X60087D02*
D03*
M02*
