G04 Layer_Color=8388736*
%FSLAX25Y25*%
%MOIN*%
G70*
G01*
G75*
%ADD33R,0.06800X0.04300*%
%ADD34R,0.03550X0.01975*%
%ADD35O,0.03550X0.01975*%
%ADD36C,0.04300*%
%ADD37R,0.04300X0.06800*%
%ADD38R,0.03950X0.03753*%
%ADD39R,0.02800X0.03300*%
%ADD40R,0.05131X0.05524*%
%ADD41O,0.03359X0.01587*%
%ADD42O,0.01587X0.03359*%
%ADD43R,0.19304X0.19304*%
%ADD44C,0.05131*%
%ADD45R,0.09658X0.09658*%
%ADD46C,0.09658*%
%ADD47C,0.03500*%
G36*
X28280Y8268D02*
X28288Y8275D01*
X28295Y8282D01*
X28317Y8304D01*
X28347Y8326D01*
X28428Y8386D01*
X28531Y8467D01*
X28657Y8555D01*
X28790Y8644D01*
X28930Y8732D01*
X29077Y8814D01*
X29085D01*
X29092Y8821D01*
X29114Y8836D01*
X29144Y8843D01*
X29225Y8880D01*
X29336Y8917D01*
X29461Y8946D01*
X29609Y8983D01*
X29771Y9005D01*
X29941Y9013D01*
X30022D01*
X30074Y9005D01*
X30147Y8998D01*
X30221Y8983D01*
X30310Y8969D01*
X30406Y8946D01*
X30502Y8917D01*
X30605Y8887D01*
X30708Y8843D01*
X30819Y8792D01*
X30915Y8732D01*
X31018Y8659D01*
X31107Y8585D01*
X31196Y8489D01*
X31203Y8482D01*
X31218Y8467D01*
X31232Y8437D01*
X31262Y8393D01*
X31299Y8341D01*
X31336Y8275D01*
X31373Y8194D01*
X31417Y8105D01*
X31454Y8009D01*
X31491Y7898D01*
X31528Y7773D01*
X31565Y7640D01*
X31594Y7493D01*
X31609Y7338D01*
X31624Y7168D01*
X31631Y6991D01*
Y3500D01*
X29948D01*
Y6157D01*
Y6164D01*
Y6172D01*
Y6216D01*
Y6275D01*
Y6363D01*
X29941Y6459D01*
X29934Y6570D01*
X29926Y6688D01*
X29919Y6806D01*
Y6814D01*
Y6821D01*
X29911Y6858D01*
X29904Y6917D01*
X29897Y6991D01*
X29867Y7146D01*
X29845Y7220D01*
X29823Y7286D01*
X29815Y7293D01*
X29808Y7316D01*
X29786Y7345D01*
X29756Y7382D01*
X29719Y7426D01*
X29683Y7470D01*
X29631Y7507D01*
X29572Y7544D01*
X29564Y7552D01*
X29542Y7559D01*
X29506Y7574D01*
X29454Y7588D01*
X29395Y7603D01*
X29321Y7611D01*
X29232Y7625D01*
X29100D01*
X29063Y7618D01*
X29011D01*
X28945Y7603D01*
X28878Y7588D01*
X28804Y7574D01*
X28723Y7544D01*
X28716D01*
X28686Y7530D01*
X28642Y7515D01*
X28590Y7485D01*
X28524Y7456D01*
X28450Y7411D01*
X28369Y7360D01*
X28280Y7301D01*
Y3500D01*
X26612D01*
Y10932D01*
X28280D01*
Y8268D01*
D02*
G37*
G36*
X43210Y8304D02*
X43218Y8312D01*
X43225Y8319D01*
X43247Y8334D01*
X43277Y8356D01*
X43343Y8415D01*
X43439Y8482D01*
X43550Y8563D01*
X43675Y8651D01*
X43815Y8732D01*
X43955Y8814D01*
X43963D01*
X43970Y8821D01*
X43992Y8836D01*
X44022Y8843D01*
X44059Y8858D01*
X44103Y8880D01*
X44214Y8917D01*
X44339Y8946D01*
X44494Y8983D01*
X44657Y9005D01*
X44841Y9013D01*
X44885D01*
X44930Y9005D01*
X44996Y8998D01*
X45077Y8991D01*
X45166Y8976D01*
X45262Y8954D01*
X45373Y8924D01*
X45491Y8880D01*
X45609Y8836D01*
X45727Y8777D01*
X45845Y8703D01*
X45963Y8614D01*
X46081Y8518D01*
X46184Y8408D01*
X46288Y8275D01*
X46295Y8268D01*
X46310Y8238D01*
X46332Y8201D01*
X46369Y8142D01*
X46406Y8068D01*
X46450Y7972D01*
X46494Y7869D01*
X46546Y7751D01*
X46590Y7611D01*
X46634Y7463D01*
X46679Y7293D01*
X46716Y7116D01*
X46753Y6917D01*
X46775Y6710D01*
X46789Y6489D01*
X46797Y6253D01*
Y6238D01*
Y6194D01*
X46789Y6127D01*
Y6039D01*
X46775Y5935D01*
X46760Y5810D01*
X46745Y5670D01*
X46716Y5515D01*
X46679Y5352D01*
X46634Y5190D01*
X46583Y5013D01*
X46516Y4843D01*
X46443Y4673D01*
X46354Y4504D01*
X46258Y4341D01*
X46140Y4186D01*
X46133Y4179D01*
X46110Y4149D01*
X46074Y4112D01*
X46022Y4061D01*
X45963Y4002D01*
X45882Y3935D01*
X45793Y3869D01*
X45697Y3795D01*
X45586Y3721D01*
X45461Y3648D01*
X45328Y3581D01*
X45188Y3522D01*
X45033Y3471D01*
X44878Y3434D01*
X44708Y3404D01*
X44531Y3397D01*
X44465D01*
X44391Y3404D01*
X44295Y3411D01*
X44184Y3419D01*
X44074Y3434D01*
X43955Y3456D01*
X43837Y3485D01*
X43823Y3493D01*
X43786Y3500D01*
X43727Y3522D01*
X43646Y3552D01*
X43557Y3596D01*
X43446Y3640D01*
X43336Y3699D01*
X43210Y3766D01*
X43136Y3500D01*
X41542D01*
Y10932D01*
X43210D01*
Y8304D01*
D02*
G37*
G36*
X24310Y8865D02*
X25926D01*
Y7699D01*
X24310D01*
Y5795D01*
Y5780D01*
Y5743D01*
Y5692D01*
Y5625D01*
Y5544D01*
Y5463D01*
Y5293D01*
Y5286D01*
Y5256D01*
X24317Y5220D01*
X24325Y5168D01*
X24332Y5116D01*
X24347Y5050D01*
X24391Y4924D01*
Y4917D01*
X24406Y4895D01*
X24421Y4865D01*
X24443Y4828D01*
X24480Y4784D01*
X24517Y4740D01*
X24568Y4696D01*
X24627Y4659D01*
X24635Y4651D01*
X24657Y4644D01*
X24701Y4629D01*
X24753Y4614D01*
X24819Y4592D01*
X24908Y4578D01*
X25011Y4570D01*
X25122Y4563D01*
X25173D01*
X25218Y4570D01*
X25262Y4578D01*
X25321Y4585D01*
X25395Y4600D01*
X25469Y4614D01*
X25476D01*
X25506Y4622D01*
X25542Y4637D01*
X25594Y4651D01*
X25690Y4688D01*
X25742Y4703D01*
X25779Y4725D01*
X25926D01*
Y3544D01*
X25911D01*
X25882Y3537D01*
X25823Y3522D01*
X25749Y3507D01*
X25660Y3493D01*
X25565Y3471D01*
X25454Y3456D01*
X25343Y3441D01*
X25328D01*
X25291Y3434D01*
X25225Y3426D01*
X25137Y3419D01*
X25026Y3411D01*
X24900Y3404D01*
X24753Y3397D01*
X24494D01*
X24421Y3404D01*
X24340Y3411D01*
X24243Y3419D01*
X24140Y3434D01*
X24022Y3448D01*
X23779Y3500D01*
X23535Y3574D01*
X23417Y3618D01*
X23306Y3677D01*
X23203Y3736D01*
X23107Y3810D01*
X23100Y3817D01*
X23085Y3832D01*
X23063Y3854D01*
X23033Y3891D01*
X22996Y3935D01*
X22959Y3994D01*
X22915Y4061D01*
X22878Y4142D01*
X22834Y4231D01*
X22790Y4334D01*
X22753Y4445D01*
X22716Y4570D01*
X22686Y4710D01*
X22664Y4858D01*
X22649Y5020D01*
X22642Y5190D01*
Y7699D01*
X22000D01*
Y8865D01*
X22642D01*
Y10400D01*
X24310D01*
Y8865D01*
D02*
G37*
G36*
X49387Y3500D02*
X47719D01*
Y10932D01*
X49387D01*
Y3500D01*
D02*
G37*
G36*
X66693Y9005D02*
X66804Y8998D01*
X66937Y8991D01*
X67077Y8976D01*
X67232Y8954D01*
X67394Y8932D01*
X67564Y8902D01*
X67734Y8865D01*
X67896Y8814D01*
X68059Y8762D01*
X68214Y8703D01*
X68354Y8629D01*
X68479Y8548D01*
X68487Y8540D01*
X68509Y8526D01*
X68538Y8496D01*
X68575Y8459D01*
X68627Y8415D01*
X68678Y8356D01*
X68738Y8282D01*
X68797Y8201D01*
X68856Y8105D01*
X68915Y8002D01*
X68966Y7891D01*
X69018Y7766D01*
X69055Y7625D01*
X69084Y7478D01*
X69107Y7316D01*
X69114Y7146D01*
Y3500D01*
X67453D01*
Y4061D01*
X67446Y4053D01*
X67424Y4039D01*
X67387Y4009D01*
X67350Y3980D01*
X67247Y3891D01*
X67136Y3803D01*
X67129Y3795D01*
X67114Y3780D01*
X67084Y3758D01*
X67040Y3736D01*
X66988Y3699D01*
X66929Y3662D01*
X66856Y3625D01*
X66774Y3581D01*
X66767Y3574D01*
X66738Y3566D01*
X66693Y3544D01*
X66634Y3522D01*
X66568Y3500D01*
X66494Y3471D01*
X66339Y3419D01*
X66332D01*
X66302Y3411D01*
X66250Y3404D01*
X66184Y3389D01*
X66103Y3382D01*
X66000Y3367D01*
X65874Y3360D01*
X65675D01*
X65623Y3367D01*
X65564Y3374D01*
X65490Y3382D01*
X65417Y3397D01*
X65328Y3419D01*
X65144Y3478D01*
X65048Y3515D01*
X64944Y3559D01*
X64848Y3611D01*
X64745Y3677D01*
X64649Y3751D01*
X64561Y3832D01*
X64553Y3839D01*
X64538Y3854D01*
X64516Y3884D01*
X64487Y3921D01*
X64450Y3965D01*
X64413Y4024D01*
X64369Y4090D01*
X64332Y4164D01*
X64287Y4245D01*
X64243Y4334D01*
X64206Y4437D01*
X64169Y4541D01*
X64140Y4659D01*
X64118Y4777D01*
X64103Y4902D01*
X64095Y5035D01*
Y5042D01*
Y5065D01*
Y5094D01*
X64103Y5131D01*
Y5183D01*
X64110Y5242D01*
X64125Y5382D01*
X64155Y5530D01*
X64199Y5692D01*
X64250Y5847D01*
X64332Y5994D01*
Y6002D01*
X64346Y6009D01*
X64376Y6053D01*
X64428Y6120D01*
X64509Y6208D01*
X64605Y6297D01*
X64723Y6393D01*
X64863Y6489D01*
X65018Y6577D01*
X65025D01*
X65040Y6585D01*
X65062Y6600D01*
X65099Y6614D01*
X65144Y6629D01*
X65195Y6651D01*
X65254Y6673D01*
X65328Y6696D01*
X65483Y6747D01*
X65667Y6799D01*
X65874Y6843D01*
X66103Y6880D01*
X66110D01*
X66132Y6887D01*
X66169D01*
X66214Y6895D01*
X66273Y6902D01*
X66339Y6910D01*
X66420Y6917D01*
X66509Y6932D01*
X66605Y6939D01*
X66708Y6954D01*
X66944Y6976D01*
X67195Y6998D01*
X67461Y7020D01*
Y7042D01*
Y7050D01*
Y7064D01*
Y7087D01*
X67453Y7116D01*
X67446Y7197D01*
X67417Y7286D01*
X67380Y7389D01*
X67321Y7493D01*
X67239Y7588D01*
X67188Y7625D01*
X67129Y7662D01*
X67114Y7670D01*
X67092Y7677D01*
X67070Y7692D01*
X67033Y7699D01*
X66988Y7714D01*
X66944Y7729D01*
X66885Y7751D01*
X66819Y7766D01*
X66745Y7780D01*
X66671Y7795D01*
X66583Y7802D01*
X66487Y7817D01*
X66383Y7825D01*
X66273Y7832D01*
X66103D01*
X66036Y7825D01*
X65955Y7817D01*
X65852Y7802D01*
X65734Y7788D01*
X65601Y7758D01*
X65453Y7721D01*
X65446D01*
X65439Y7714D01*
X65417D01*
X65387Y7699D01*
X65313Y7677D01*
X65210Y7648D01*
X65092Y7603D01*
X64966Y7559D01*
X64826Y7507D01*
X64686Y7448D01*
X64546D01*
Y8740D01*
X64561D01*
X64590Y8755D01*
X64649Y8769D01*
X64738Y8792D01*
X64848Y8814D01*
X64988Y8843D01*
X65151Y8873D01*
X65343Y8909D01*
X65350D01*
X65365Y8917D01*
X65394D01*
X65439Y8924D01*
X65490Y8932D01*
X65549Y8939D01*
X65616Y8954D01*
X65690Y8961D01*
X65859Y8983D01*
X66051Y8998D01*
X66250Y9005D01*
X66465Y9013D01*
X66597D01*
X66693Y9005D01*
D02*
G37*
G36*
X84435Y3500D02*
X82767D01*
Y10932D01*
X84435D01*
Y3500D01*
D02*
G37*
G36*
X62081Y9005D02*
X62199Y8998D01*
X62332Y8991D01*
X62479Y8969D01*
X62642Y8946D01*
X62804Y8909D01*
X62811D01*
X62826Y8902D01*
X62848D01*
X62885Y8887D01*
X62922Y8880D01*
X62974Y8865D01*
X63085Y8828D01*
X63225Y8784D01*
X63372Y8725D01*
X63535Y8659D01*
X63704Y8577D01*
Y7153D01*
X63483D01*
X63476Y7160D01*
X63468Y7168D01*
X63446Y7190D01*
X63417Y7212D01*
X63343Y7279D01*
X63239Y7360D01*
X63232Y7367D01*
X63217Y7382D01*
X63180Y7404D01*
X63143Y7434D01*
X63099Y7463D01*
X63040Y7500D01*
X62922Y7574D01*
X62915Y7581D01*
X62893Y7588D01*
X62856Y7611D01*
X62804Y7633D01*
X62745Y7662D01*
X62671Y7692D01*
X62597Y7714D01*
X62509Y7744D01*
X62501D01*
X62472Y7758D01*
X62420Y7766D01*
X62361Y7780D01*
X62287Y7795D01*
X62199Y7802D01*
X62103Y7817D01*
X61941D01*
X61896Y7810D01*
X61845Y7802D01*
X61778Y7795D01*
X61638Y7758D01*
X61483Y7707D01*
X61394Y7670D01*
X61313Y7625D01*
X61232Y7574D01*
X61158Y7515D01*
X61077Y7448D01*
X61011Y7367D01*
Y7360D01*
X60996Y7345D01*
X60981Y7323D01*
X60959Y7286D01*
X60930Y7242D01*
X60900Y7183D01*
X60870Y7124D01*
X60841Y7050D01*
X60804Y6969D01*
X60774Y6873D01*
X60745Y6777D01*
X60716Y6666D01*
X60693Y6548D01*
X60679Y6430D01*
X60671Y6297D01*
X60664Y6157D01*
Y6149D01*
Y6120D01*
Y6083D01*
X60671Y6024D01*
X60679Y5957D01*
X60686Y5876D01*
X60693Y5795D01*
X60708Y5699D01*
X60752Y5507D01*
X60819Y5301D01*
X60863Y5205D01*
X60915Y5116D01*
X60966Y5028D01*
X61033Y4947D01*
X61040Y4939D01*
X61048Y4932D01*
X61070Y4910D01*
X61099Y4887D01*
X61136Y4858D01*
X61188Y4821D01*
X61239Y4784D01*
X61299Y4755D01*
X61439Y4681D01*
X61616Y4614D01*
X61808Y4570D01*
X61918Y4563D01*
X62029Y4555D01*
X62081D01*
X62140Y4563D01*
X62221D01*
X62302Y4570D01*
X62398Y4585D01*
X62494Y4600D01*
X62583Y4622D01*
X62590D01*
X62620Y4637D01*
X62664Y4651D01*
X62723Y4673D01*
X62789Y4696D01*
X62856Y4725D01*
X62996Y4799D01*
X63003Y4806D01*
X63025Y4814D01*
X63055Y4836D01*
X63092Y4858D01*
X63180Y4924D01*
X63276Y5006D01*
X63284Y5013D01*
X63298Y5028D01*
X63321Y5042D01*
X63350Y5072D01*
X63417Y5138D01*
X63483Y5205D01*
X63704D01*
Y3773D01*
X63697D01*
X63682Y3758D01*
X63645Y3751D01*
X63608Y3729D01*
X63557Y3707D01*
X63498Y3684D01*
X63365Y3625D01*
X63358D01*
X63335Y3611D01*
X63298Y3596D01*
X63247Y3581D01*
X63195Y3559D01*
X63129Y3537D01*
X62989Y3500D01*
X62981D01*
X62944Y3493D01*
X62900Y3478D01*
X62841Y3463D01*
X62767Y3448D01*
X62693Y3426D01*
X62531Y3397D01*
X62524D01*
X62494Y3389D01*
X62442Y3382D01*
X62383D01*
X62302Y3374D01*
X62206Y3367D01*
X62095Y3360D01*
X61859D01*
X61800Y3367D01*
X61734D01*
X61653Y3374D01*
X61572Y3382D01*
X61380Y3397D01*
X61173Y3426D01*
X60966Y3471D01*
X60752Y3522D01*
X60745D01*
X60730Y3529D01*
X60701Y3537D01*
X60664Y3552D01*
X60612Y3574D01*
X60561Y3596D01*
X60428Y3648D01*
X60280Y3721D01*
X60118Y3810D01*
X59955Y3921D01*
X59800Y4039D01*
X59793Y4046D01*
X59786Y4053D01*
X59763Y4076D01*
X59734Y4098D01*
X59660Y4179D01*
X59572Y4275D01*
X59468Y4400D01*
X59365Y4555D01*
X59262Y4725D01*
X59173Y4910D01*
Y4917D01*
X59166Y4932D01*
X59151Y4961D01*
X59136Y5006D01*
X59121Y5057D01*
X59107Y5116D01*
X59084Y5183D01*
X59062Y5264D01*
X59040Y5352D01*
X59026Y5448D01*
X58989Y5662D01*
X58959Y5898D01*
X58952Y6157D01*
Y6164D01*
Y6194D01*
Y6231D01*
X58959Y6282D01*
Y6349D01*
X58966Y6430D01*
X58974Y6511D01*
X58981Y6607D01*
X59011Y6814D01*
X59055Y7035D01*
X59107Y7249D01*
X59188Y7463D01*
Y7470D01*
X59203Y7485D01*
X59210Y7515D01*
X59232Y7552D01*
X59254Y7603D01*
X59284Y7655D01*
X59365Y7780D01*
X59461Y7921D01*
X59572Y8068D01*
X59704Y8216D01*
X59852Y8356D01*
X59859Y8363D01*
X59867Y8371D01*
X59889Y8386D01*
X59926Y8408D01*
X59963Y8437D01*
X60007Y8467D01*
X60118Y8540D01*
X60258Y8622D01*
X60413Y8703D01*
X60597Y8784D01*
X60789Y8850D01*
X60797D01*
X60811Y8858D01*
X60841Y8865D01*
X60885Y8873D01*
X60937Y8887D01*
X60996Y8902D01*
X61062Y8917D01*
X61136Y8932D01*
X61306Y8961D01*
X61498Y8991D01*
X61704Y9005D01*
X61918Y9013D01*
X62037D01*
X62081Y9005D01*
D02*
G37*
G36*
X73815D02*
X73889Y8998D01*
X73963Y8983D01*
X74051Y8969D01*
X74147Y8946D01*
X74243Y8917D01*
X74346Y8887D01*
X74450Y8843D01*
X74560Y8792D01*
X74656Y8732D01*
X74760Y8659D01*
X74848Y8585D01*
X74937Y8489D01*
X74944Y8482D01*
X74959Y8467D01*
X74974Y8437D01*
X75003Y8393D01*
X75040Y8341D01*
X75077Y8275D01*
X75114Y8194D01*
X75158Y8105D01*
X75195Y8009D01*
X75232Y7898D01*
X75269Y7773D01*
X75306Y7640D01*
X75335Y7493D01*
X75350Y7338D01*
X75365Y7168D01*
X75372Y6991D01*
Y3500D01*
X73690D01*
Y6157D01*
Y6164D01*
Y6172D01*
Y6216D01*
Y6275D01*
Y6363D01*
X73682Y6459D01*
X73675Y6570D01*
X73667Y6688D01*
X73660Y6806D01*
Y6814D01*
Y6821D01*
X73653Y6858D01*
X73645Y6917D01*
X73638Y6991D01*
X73608Y7146D01*
X73586Y7220D01*
X73564Y7286D01*
X73557Y7293D01*
X73549Y7316D01*
X73527Y7345D01*
X73498Y7382D01*
X73461Y7426D01*
X73424Y7470D01*
X73372Y7507D01*
X73313Y7544D01*
X73306Y7552D01*
X73284Y7559D01*
X73247Y7574D01*
X73195Y7588D01*
X73136Y7603D01*
X73062Y7611D01*
X72974Y7625D01*
X72841D01*
X72804Y7618D01*
X72752D01*
X72686Y7603D01*
X72619Y7588D01*
X72546Y7574D01*
X72464Y7544D01*
X72457D01*
X72427Y7530D01*
X72383Y7515D01*
X72332Y7485D01*
X72265Y7456D01*
X72191Y7411D01*
X72110Y7360D01*
X72022Y7301D01*
Y3500D01*
X70354D01*
Y8865D01*
X72022D01*
Y8268D01*
X72029Y8275D01*
X72036Y8282D01*
X72058Y8304D01*
X72088Y8326D01*
X72169Y8386D01*
X72273Y8467D01*
X72398Y8555D01*
X72531Y8644D01*
X72671Y8732D01*
X72819Y8814D01*
X72826D01*
X72833Y8821D01*
X72856Y8836D01*
X72885Y8843D01*
X72966Y8880D01*
X73077Y8917D01*
X73202Y8946D01*
X73350Y8983D01*
X73512Y9005D01*
X73682Y9013D01*
X73763D01*
X73815Y9005D01*
D02*
G37*
G36*
X81483Y3500D02*
X79815D01*
Y4053D01*
X79808Y4046D01*
X79785Y4031D01*
X79756Y4002D01*
X79704Y3965D01*
X79653Y3928D01*
X79586Y3876D01*
X79520Y3825D01*
X79439Y3766D01*
X79431Y3758D01*
X79402Y3743D01*
X79365Y3714D01*
X79313Y3684D01*
X79202Y3611D01*
X79077Y3537D01*
X79070D01*
X79040Y3522D01*
X79003Y3507D01*
X78952Y3485D01*
X78892Y3463D01*
X78826Y3441D01*
X78678Y3404D01*
X78671D01*
X78641Y3397D01*
X78605Y3389D01*
X78546Y3382D01*
X78479Y3367D01*
X78398Y3360D01*
X78309Y3352D01*
X78177D01*
X78125Y3360D01*
X78058Y3367D01*
X77985Y3374D01*
X77896Y3389D01*
X77793Y3419D01*
X77689Y3448D01*
X77571Y3485D01*
X77453Y3537D01*
X77335Y3596D01*
X77210Y3670D01*
X77092Y3758D01*
X76974Y3854D01*
X76863Y3972D01*
X76760Y4105D01*
X76752Y4112D01*
X76737Y4142D01*
X76708Y4186D01*
X76678Y4245D01*
X76634Y4319D01*
X76590Y4415D01*
X76546Y4518D01*
X76494Y4644D01*
X76442Y4784D01*
X76398Y4939D01*
X76354Y5102D01*
X76309Y5286D01*
X76280Y5478D01*
X76250Y5692D01*
X76236Y5906D01*
X76228Y6142D01*
Y6149D01*
Y6172D01*
Y6208D01*
Y6260D01*
X76236Y6319D01*
Y6393D01*
X76243Y6467D01*
X76250Y6555D01*
X76272Y6747D01*
X76302Y6946D01*
X76346Y7153D01*
X76405Y7352D01*
Y7360D01*
X76413Y7374D01*
X76428Y7404D01*
X76442Y7441D01*
X76457Y7485D01*
X76479Y7537D01*
X76538Y7662D01*
X76612Y7802D01*
X76693Y7950D01*
X76797Y8105D01*
X76907Y8253D01*
Y8260D01*
X76922Y8268D01*
X76959Y8312D01*
X77025Y8371D01*
X77106Y8452D01*
X77210Y8540D01*
X77328Y8636D01*
X77468Y8725D01*
X77616Y8806D01*
X77623D01*
X77638Y8814D01*
X77660Y8828D01*
X77689Y8836D01*
X77726Y8858D01*
X77771Y8873D01*
X77881Y8909D01*
X78014Y8946D01*
X78162Y8983D01*
X78324Y9005D01*
X78494Y9013D01*
X78568D01*
X78641Y9005D01*
X78737D01*
X78848Y8991D01*
X78959Y8976D01*
X79077Y8954D01*
X79180Y8924D01*
X79195Y8917D01*
X79232Y8909D01*
X79284Y8887D01*
X79365Y8858D01*
X79453Y8814D01*
X79564Y8769D01*
X79682Y8710D01*
X79815Y8644D01*
Y10932D01*
X81483D01*
Y3500D01*
D02*
G37*
G36*
X88309Y9028D02*
X88390D01*
X88494Y9013D01*
X88612Y8998D01*
X88745Y8976D01*
X88885Y8954D01*
X89025Y8917D01*
X89180Y8873D01*
X89335Y8821D01*
X89490Y8755D01*
X89638Y8681D01*
X89778Y8592D01*
X89911Y8489D01*
X90036Y8371D01*
X90044Y8363D01*
X90066Y8341D01*
X90095Y8304D01*
X90132Y8245D01*
X90184Y8179D01*
X90236Y8098D01*
X90294Y7994D01*
X90354Y7884D01*
X90405Y7758D01*
X90464Y7611D01*
X90516Y7456D01*
X90568Y7286D01*
X90605Y7101D01*
X90634Y6902D01*
X90656Y6696D01*
X90663Y6467D01*
Y5869D01*
X86996D01*
Y5862D01*
Y5854D01*
X87003Y5810D01*
X87010Y5736D01*
X87025Y5648D01*
X87040Y5552D01*
X87069Y5448D01*
X87106Y5338D01*
X87151Y5242D01*
X87158Y5234D01*
X87173Y5197D01*
X87202Y5153D01*
X87247Y5102D01*
X87298Y5035D01*
X87357Y4969D01*
X87424Y4902D01*
X87505Y4843D01*
X87512Y4836D01*
X87542Y4821D01*
X87586Y4792D01*
X87645Y4762D01*
X87719Y4725D01*
X87808Y4688D01*
X87903Y4659D01*
X88007Y4629D01*
X88021D01*
X88058Y4622D01*
X88117Y4614D01*
X88191Y4600D01*
X88287Y4592D01*
X88390Y4578D01*
X88509Y4570D01*
X88737D01*
X88811Y4578D01*
X88900Y4585D01*
X88996Y4592D01*
X89202Y4629D01*
X89217D01*
X89254Y4644D01*
X89306Y4659D01*
X89372Y4673D01*
X89453Y4703D01*
X89542Y4733D01*
X89719Y4799D01*
X89726Y4806D01*
X89756Y4814D01*
X89793Y4836D01*
X89844Y4858D01*
X89903Y4887D01*
X89970Y4917D01*
X90103Y4991D01*
X90110Y4998D01*
X90132Y5013D01*
X90162Y5028D01*
X90206Y5057D01*
X90302Y5116D01*
X90390Y5183D01*
X90568D01*
Y3803D01*
X90560D01*
X90531Y3788D01*
X90494Y3773D01*
X90442Y3751D01*
X90383Y3729D01*
X90324Y3707D01*
X90191Y3648D01*
X90184D01*
X90162Y3633D01*
X90125Y3625D01*
X90073Y3603D01*
X90007Y3581D01*
X89925Y3559D01*
X89830Y3537D01*
X89726Y3507D01*
X89711D01*
X89682Y3500D01*
X89623Y3485D01*
X89556Y3471D01*
X89468Y3456D01*
X89372Y3434D01*
X89269Y3419D01*
X89165Y3404D01*
X89151D01*
X89114Y3397D01*
X89055Y3389D01*
X88966Y3382D01*
X88863Y3374D01*
X88745Y3367D01*
X88612Y3360D01*
X88390D01*
X88309Y3367D01*
X88206Y3374D01*
X88081Y3382D01*
X87933Y3397D01*
X87771Y3419D01*
X87601Y3448D01*
X87416Y3485D01*
X87224Y3537D01*
X87033Y3596D01*
X86841Y3662D01*
X86649Y3751D01*
X86464Y3847D01*
X86295Y3958D01*
X86132Y4083D01*
X86125Y4090D01*
X86095Y4120D01*
X86058Y4157D01*
X86007Y4216D01*
X85948Y4290D01*
X85881Y4386D01*
X85808Y4489D01*
X85734Y4614D01*
X85653Y4755D01*
X85586Y4902D01*
X85512Y5072D01*
X85453Y5264D01*
X85402Y5463D01*
X85365Y5677D01*
X85335Y5906D01*
X85328Y6149D01*
Y6157D01*
Y6164D01*
Y6208D01*
X85335Y6275D01*
X85343Y6371D01*
X85350Y6481D01*
X85365Y6607D01*
X85394Y6747D01*
X85424Y6902D01*
X85461Y7064D01*
X85512Y7242D01*
X85571Y7411D01*
X85645Y7588D01*
X85734Y7758D01*
X85830Y7928D01*
X85948Y8090D01*
X86080Y8245D01*
X86088Y8253D01*
X86117Y8282D01*
X86162Y8319D01*
X86221Y8371D01*
X86295Y8430D01*
X86391Y8496D01*
X86501Y8570D01*
X86627Y8644D01*
X86767Y8718D01*
X86929Y8784D01*
X87099Y8850D01*
X87291Y8909D01*
X87490Y8961D01*
X87712Y8998D01*
X87940Y9028D01*
X88191Y9035D01*
X88243D01*
X88309Y9028D01*
D02*
G37*
G36*
X53262D02*
X53343D01*
X53446Y9013D01*
X53564Y8998D01*
X53697Y8976D01*
X53837Y8954D01*
X53978Y8917D01*
X54132Y8873D01*
X54287Y8821D01*
X54443Y8755D01*
X54590Y8681D01*
X54730Y8592D01*
X54863Y8489D01*
X54989Y8371D01*
X54996Y8363D01*
X55018Y8341D01*
X55048Y8304D01*
X55085Y8245D01*
X55136Y8179D01*
X55188Y8098D01*
X55247Y7994D01*
X55306Y7884D01*
X55358Y7758D01*
X55417Y7611D01*
X55468Y7456D01*
X55520Y7286D01*
X55557Y7101D01*
X55586Y6902D01*
X55608Y6696D01*
X55616Y6467D01*
Y5869D01*
X51948D01*
Y5862D01*
Y5854D01*
X51955Y5810D01*
X51963Y5736D01*
X51978Y5648D01*
X51992Y5552D01*
X52022Y5448D01*
X52059Y5338D01*
X52103Y5242D01*
X52110Y5234D01*
X52125Y5197D01*
X52155Y5153D01*
X52199Y5102D01*
X52251Y5035D01*
X52310Y4969D01*
X52376Y4902D01*
X52457Y4843D01*
X52465Y4836D01*
X52494Y4821D01*
X52538Y4792D01*
X52597Y4762D01*
X52671Y4725D01*
X52760Y4688D01*
X52856Y4659D01*
X52959Y4629D01*
X52974D01*
X53011Y4622D01*
X53070Y4614D01*
X53144Y4600D01*
X53240Y4592D01*
X53343Y4578D01*
X53461Y4570D01*
X53690D01*
X53764Y4578D01*
X53852Y4585D01*
X53948Y4592D01*
X54155Y4629D01*
X54169D01*
X54206Y4644D01*
X54258Y4659D01*
X54324Y4673D01*
X54406Y4703D01*
X54494Y4733D01*
X54671Y4799D01*
X54679Y4806D01*
X54708Y4814D01*
X54745Y4836D01*
X54797Y4858D01*
X54856Y4887D01*
X54922Y4917D01*
X55055Y4991D01*
X55062Y4998D01*
X55085Y5013D01*
X55114Y5028D01*
X55158Y5057D01*
X55254Y5116D01*
X55343Y5183D01*
X55520D01*
Y3803D01*
X55513D01*
X55483Y3788D01*
X55446Y3773D01*
X55395Y3751D01*
X55335Y3729D01*
X55276Y3707D01*
X55144Y3648D01*
X55136D01*
X55114Y3633D01*
X55077Y3625D01*
X55026Y3603D01*
X54959Y3581D01*
X54878Y3559D01*
X54782Y3537D01*
X54679Y3507D01*
X54664D01*
X54634Y3500D01*
X54575Y3485D01*
X54509Y3471D01*
X54420Y3456D01*
X54324Y3434D01*
X54221Y3419D01*
X54118Y3404D01*
X54103D01*
X54066Y3397D01*
X54007Y3389D01*
X53918Y3382D01*
X53815Y3374D01*
X53697Y3367D01*
X53564Y3360D01*
X53343D01*
X53262Y3367D01*
X53158Y3374D01*
X53033Y3382D01*
X52885Y3397D01*
X52723Y3419D01*
X52553Y3448D01*
X52369Y3485D01*
X52177Y3537D01*
X51985Y3596D01*
X51793Y3662D01*
X51601Y3751D01*
X51417Y3847D01*
X51247Y3958D01*
X51085Y4083D01*
X51077Y4090D01*
X51048Y4120D01*
X51011Y4157D01*
X50959Y4216D01*
X50900Y4290D01*
X50834Y4386D01*
X50760Y4489D01*
X50686Y4614D01*
X50605Y4755D01*
X50538Y4902D01*
X50465Y5072D01*
X50406Y5264D01*
X50354Y5463D01*
X50317Y5677D01*
X50287Y5906D01*
X50280Y6149D01*
Y6157D01*
Y6164D01*
Y6208D01*
X50287Y6275D01*
X50295Y6371D01*
X50302Y6481D01*
X50317Y6607D01*
X50347Y6747D01*
X50376Y6902D01*
X50413Y7064D01*
X50465Y7242D01*
X50524Y7411D01*
X50598Y7588D01*
X50686Y7758D01*
X50782Y7928D01*
X50900Y8090D01*
X51033Y8245D01*
X51040Y8253D01*
X51070Y8282D01*
X51114Y8319D01*
X51173Y8371D01*
X51247Y8430D01*
X51343Y8496D01*
X51454Y8570D01*
X51579Y8644D01*
X51719Y8718D01*
X51882Y8784D01*
X52051Y8850D01*
X52243Y8909D01*
X52443Y8961D01*
X52664Y8998D01*
X52893Y9028D01*
X53144Y9035D01*
X53195D01*
X53262Y9028D01*
D02*
G37*
G36*
X35461D02*
X35542D01*
X35646Y9013D01*
X35764Y8998D01*
X35897Y8976D01*
X36037Y8954D01*
X36177Y8917D01*
X36332Y8873D01*
X36487Y8821D01*
X36642Y8755D01*
X36790Y8681D01*
X36930Y8592D01*
X37063Y8489D01*
X37188Y8371D01*
X37195Y8363D01*
X37218Y8341D01*
X37247Y8304D01*
X37284Y8245D01*
X37336Y8179D01*
X37387Y8098D01*
X37446Y7994D01*
X37505Y7884D01*
X37557Y7758D01*
X37616Y7611D01*
X37668Y7456D01*
X37719Y7286D01*
X37756Y7101D01*
X37786Y6902D01*
X37808Y6696D01*
X37815Y6467D01*
Y5869D01*
X34148D01*
Y5862D01*
Y5854D01*
X34155Y5810D01*
X34162Y5736D01*
X34177Y5648D01*
X34192Y5552D01*
X34221Y5448D01*
X34258Y5338D01*
X34302Y5242D01*
X34310Y5234D01*
X34325Y5197D01*
X34354Y5153D01*
X34398Y5102D01*
X34450Y5035D01*
X34509Y4969D01*
X34576Y4902D01*
X34657Y4843D01*
X34664Y4836D01*
X34694Y4821D01*
X34738Y4792D01*
X34797Y4762D01*
X34871Y4725D01*
X34959Y4688D01*
X35055Y4659D01*
X35159Y4629D01*
X35173D01*
X35210Y4622D01*
X35269Y4614D01*
X35343Y4600D01*
X35439Y4592D01*
X35542Y4578D01*
X35660Y4570D01*
X35889D01*
X35963Y4578D01*
X36051Y4585D01*
X36147Y4592D01*
X36354Y4629D01*
X36369D01*
X36406Y4644D01*
X36457Y4659D01*
X36524Y4673D01*
X36605Y4703D01*
X36694Y4733D01*
X36871Y4799D01*
X36878Y4806D01*
X36908Y4814D01*
X36944Y4836D01*
X36996Y4858D01*
X37055Y4887D01*
X37122Y4917D01*
X37255Y4991D01*
X37262Y4998D01*
X37284Y5013D01*
X37314Y5028D01*
X37358Y5057D01*
X37454Y5116D01*
X37542Y5183D01*
X37719D01*
Y3803D01*
X37712D01*
X37683Y3788D01*
X37646Y3773D01*
X37594Y3751D01*
X37535Y3729D01*
X37476Y3707D01*
X37343Y3648D01*
X37336D01*
X37314Y3633D01*
X37277Y3625D01*
X37225Y3603D01*
X37159Y3581D01*
X37077Y3559D01*
X36981Y3537D01*
X36878Y3507D01*
X36863D01*
X36834Y3500D01*
X36775Y3485D01*
X36708Y3471D01*
X36620Y3456D01*
X36524Y3434D01*
X36421Y3419D01*
X36317Y3404D01*
X36302D01*
X36266Y3397D01*
X36206Y3389D01*
X36118Y3382D01*
X36015Y3374D01*
X35897Y3367D01*
X35764Y3360D01*
X35542D01*
X35461Y3367D01*
X35358Y3374D01*
X35232Y3382D01*
X35085Y3397D01*
X34922Y3419D01*
X34753Y3448D01*
X34568Y3485D01*
X34376Y3537D01*
X34184Y3596D01*
X33992Y3662D01*
X33801Y3751D01*
X33616Y3847D01*
X33446Y3958D01*
X33284Y4083D01*
X33277Y4090D01*
X33247Y4120D01*
X33210Y4157D01*
X33159Y4216D01*
X33099Y4290D01*
X33033Y4386D01*
X32959Y4489D01*
X32886Y4614D01*
X32804Y4755D01*
X32738Y4902D01*
X32664Y5072D01*
X32605Y5264D01*
X32553Y5463D01*
X32517Y5677D01*
X32487Y5906D01*
X32480Y6149D01*
Y6157D01*
Y6164D01*
Y6208D01*
X32487Y6275D01*
X32494Y6371D01*
X32502Y6481D01*
X32517Y6607D01*
X32546Y6747D01*
X32576Y6902D01*
X32612Y7064D01*
X32664Y7242D01*
X32723Y7411D01*
X32797Y7588D01*
X32886Y7758D01*
X32981Y7928D01*
X33099Y8090D01*
X33232Y8245D01*
X33240Y8253D01*
X33269Y8282D01*
X33314Y8319D01*
X33373Y8371D01*
X33446Y8430D01*
X33542Y8496D01*
X33653Y8570D01*
X33779Y8644D01*
X33919Y8718D01*
X34081Y8784D01*
X34251Y8850D01*
X34443Y8909D01*
X34642Y8961D01*
X34863Y8998D01*
X35092Y9028D01*
X35343Y9035D01*
X35395D01*
X35461Y9028D01*
D02*
G37*
%LPC*%
G36*
X35210Y7958D02*
X35166D01*
X35129Y7950D01*
X35085D01*
X35041Y7943D01*
X34930Y7921D01*
X34804Y7884D01*
X34679Y7832D01*
X34553Y7758D01*
X34443Y7662D01*
X34428Y7648D01*
X34398Y7611D01*
X34354Y7544D01*
X34302Y7456D01*
X34251Y7345D01*
X34199Y7212D01*
X34162Y7057D01*
X34140Y6880D01*
X36170D01*
Y6887D01*
Y6902D01*
Y6932D01*
X36162Y6969D01*
Y7013D01*
X36155Y7057D01*
X36133Y7175D01*
X36103Y7308D01*
X36059Y7441D01*
X36000Y7566D01*
X35919Y7677D01*
X35911Y7692D01*
X35874Y7721D01*
X35823Y7766D01*
X35742Y7817D01*
X35646Y7869D01*
X35520Y7913D01*
X35380Y7943D01*
X35210Y7958D01*
D02*
G37*
G36*
X53011D02*
X52966D01*
X52930Y7950D01*
X52885D01*
X52841Y7943D01*
X52730Y7921D01*
X52605Y7884D01*
X52479Y7832D01*
X52354Y7758D01*
X52243Y7662D01*
X52228Y7648D01*
X52199Y7611D01*
X52155Y7544D01*
X52103Y7456D01*
X52051Y7345D01*
X52000Y7212D01*
X51963Y7057D01*
X51941Y6880D01*
X53970D01*
Y6887D01*
Y6902D01*
Y6932D01*
X53963Y6969D01*
Y7013D01*
X53955Y7057D01*
X53933Y7175D01*
X53904Y7308D01*
X53860Y7441D01*
X53800Y7566D01*
X53719Y7677D01*
X53712Y7692D01*
X53675Y7721D01*
X53623Y7766D01*
X53542Y7817D01*
X53446Y7869D01*
X53321Y7913D01*
X53180Y7943D01*
X53011Y7958D01*
D02*
G37*
G36*
X88058D02*
X88014D01*
X87977Y7950D01*
X87933D01*
X87889Y7943D01*
X87778Y7921D01*
X87652Y7884D01*
X87527Y7832D01*
X87402Y7758D01*
X87291Y7662D01*
X87276Y7648D01*
X87247Y7611D01*
X87202Y7544D01*
X87151Y7456D01*
X87099Y7345D01*
X87047Y7212D01*
X87010Y7057D01*
X86988Y6880D01*
X89018D01*
Y6887D01*
Y6902D01*
Y6932D01*
X89010Y6969D01*
Y7013D01*
X89003Y7057D01*
X88981Y7175D01*
X88951Y7308D01*
X88907Y7441D01*
X88848Y7566D01*
X88767Y7677D01*
X88759Y7692D01*
X88723Y7721D01*
X88671Y7766D01*
X88590Y7817D01*
X88494Y7869D01*
X88368Y7913D01*
X88228Y7943D01*
X88058Y7958D01*
D02*
G37*
G36*
X67453Y6009D02*
X67431D01*
X67409Y6002D01*
X67380D01*
X67306Y5994D01*
X67210Y5980D01*
X67099Y5972D01*
X66981Y5957D01*
X66863Y5943D01*
X66760Y5928D01*
X66745D01*
X66715Y5921D01*
X66664Y5913D01*
X66597Y5906D01*
X66523Y5884D01*
X66435Y5869D01*
X66243Y5810D01*
X66236D01*
X66206Y5795D01*
X66169Y5780D01*
X66118Y5751D01*
X66066Y5721D01*
X66007Y5684D01*
X65955Y5633D01*
X65904Y5581D01*
X65896Y5574D01*
X65889Y5552D01*
X65867Y5522D01*
X65845Y5471D01*
X65822Y5411D01*
X65808Y5345D01*
X65793Y5264D01*
X65785Y5175D01*
Y5168D01*
Y5161D01*
Y5116D01*
X65793Y5050D01*
X65808Y4969D01*
X65837Y4887D01*
X65867Y4799D01*
X65918Y4718D01*
X65985Y4659D01*
X65992Y4651D01*
X66022Y4637D01*
X66073Y4614D01*
X66140Y4592D01*
X66221Y4570D01*
X66324Y4548D01*
X66442Y4533D01*
X66583Y4526D01*
X66619D01*
X66664Y4533D01*
X66723Y4541D01*
X66789Y4548D01*
X66863Y4570D01*
X66952Y4592D01*
X67033Y4622D01*
X67040Y4629D01*
X67070Y4637D01*
X67114Y4659D01*
X67173Y4696D01*
X67239Y4733D01*
X67306Y4784D01*
X67380Y4836D01*
X67453Y4902D01*
Y6009D01*
D02*
G37*
G36*
X44184Y7707D02*
X44007D01*
X43948Y7699D01*
X43882Y7692D01*
X43808Y7677D01*
X43646Y7633D01*
X43638D01*
X43609Y7618D01*
X43564Y7603D01*
X43505Y7581D01*
X43439Y7552D01*
X43365Y7515D01*
X43210Y7419D01*
Y4733D01*
X43218D01*
X43240Y4725D01*
X43269Y4710D01*
X43313Y4696D01*
X43365Y4681D01*
X43417Y4666D01*
X43542Y4644D01*
X43572D01*
X43609Y4637D01*
X43646D01*
X43697Y4629D01*
X43756D01*
X43882Y4622D01*
X43941D01*
X43978Y4629D01*
X44029Y4637D01*
X44088Y4644D01*
X44221Y4673D01*
X44369Y4718D01*
X44516Y4792D01*
X44590Y4836D01*
X44657Y4887D01*
X44723Y4954D01*
X44782Y5020D01*
Y5028D01*
X44797Y5042D01*
X44812Y5065D01*
X44826Y5094D01*
X44856Y5138D01*
X44878Y5190D01*
X44908Y5249D01*
X44937Y5323D01*
X44959Y5397D01*
X44989Y5485D01*
X45018Y5588D01*
X45040Y5692D01*
X45055Y5810D01*
X45070Y5935D01*
X45085Y6068D01*
Y6216D01*
Y6223D01*
Y6253D01*
Y6290D01*
Y6349D01*
X45077Y6415D01*
X45070Y6489D01*
X45063Y6570D01*
X45055Y6659D01*
X45026Y6850D01*
X44981Y7035D01*
X44922Y7212D01*
X44885Y7293D01*
X44841Y7360D01*
Y7367D01*
X44826Y7374D01*
X44797Y7411D01*
X44738Y7470D01*
X44657Y7537D01*
X44553Y7596D01*
X44420Y7655D01*
X44265Y7692D01*
X44184Y7707D01*
D02*
G37*
G36*
X79143Y7758D02*
X79084D01*
X79047Y7751D01*
X78996Y7744D01*
X78937Y7736D01*
X78804Y7707D01*
X78664Y7655D01*
X78583Y7618D01*
X78509Y7581D01*
X78442Y7530D01*
X78368Y7470D01*
X78302Y7404D01*
X78243Y7330D01*
Y7323D01*
X78228Y7308D01*
X78214Y7286D01*
X78199Y7256D01*
X78177Y7212D01*
X78147Y7160D01*
X78118Y7094D01*
X78095Y7028D01*
X78066Y6946D01*
X78036Y6858D01*
X78014Y6762D01*
X77985Y6659D01*
X77970Y6548D01*
X77955Y6423D01*
X77940Y6297D01*
Y6157D01*
Y6149D01*
Y6120D01*
Y6083D01*
X77948Y6024D01*
Y5965D01*
X77955Y5884D01*
X77962Y5803D01*
X77970Y5714D01*
X77999Y5522D01*
X78044Y5338D01*
X78095Y5161D01*
X78132Y5079D01*
X78177Y5006D01*
X78191Y4991D01*
X78221Y4954D01*
X78280Y4895D01*
X78368Y4836D01*
X78472Y4769D01*
X78612Y4710D01*
X78774Y4673D01*
X78863Y4666D01*
X78959Y4659D01*
X78996D01*
X79040Y4666D01*
X79099D01*
X79166Y4681D01*
X79239Y4696D01*
X79321Y4710D01*
X79402Y4740D01*
X79409Y4747D01*
X79439Y4755D01*
X79483Y4777D01*
X79535Y4806D01*
X79601Y4836D01*
X79667Y4880D01*
X79815Y4976D01*
Y7611D01*
X79808D01*
X79793Y7618D01*
X79763Y7633D01*
X79726Y7648D01*
X79682Y7662D01*
X79623Y7677D01*
X79557Y7699D01*
X79483Y7714D01*
X79475D01*
X79453Y7721D01*
X79409Y7729D01*
X79365Y7736D01*
X79254Y7751D01*
X79143Y7758D01*
D02*
G37*
%LPD*%
D33*
X80000Y58300D02*
D03*
Y50700D02*
D03*
X88000Y109300D02*
D03*
Y101700D02*
D03*
X30000Y83300D02*
D03*
Y75700D02*
D03*
X64000Y83300D02*
D03*
Y75700D02*
D03*
X47000Y83300D02*
D03*
Y75700D02*
D03*
X76000Y125700D02*
D03*
Y133300D02*
D03*
X86000Y148700D02*
D03*
Y156300D02*
D03*
X95000Y148700D02*
D03*
Y156300D02*
D03*
X15000Y140700D02*
D03*
Y148300D02*
D03*
X53000Y156300D02*
D03*
Y148700D02*
D03*
X25000D02*
D03*
Y156300D02*
D03*
D34*
X14331Y114441D02*
D03*
D35*
Y117000D02*
D03*
Y119559D02*
D03*
X5669Y114441D02*
D03*
Y117000D02*
D03*
Y119559D02*
D03*
D36*
X45000Y58000D02*
D03*
Y53000D02*
D03*
X50000D02*
D03*
X55000D02*
D03*
Y58000D02*
D03*
X50000D02*
D03*
D37*
X83200Y132500D02*
D03*
X90800D02*
D03*
X68800Y144500D02*
D03*
X61200D02*
D03*
X45800Y138500D02*
D03*
X38200D02*
D03*
D38*
X80000Y109843D02*
D03*
Y115157D02*
D03*
X85000Y144158D02*
D03*
Y138843D02*
D03*
D39*
X74000Y115236D02*
D03*
Y119764D02*
D03*
D40*
X43756Y149154D02*
D03*
Y155847D02*
D03*
X38244D02*
D03*
Y149154D02*
D03*
D41*
X41091Y124162D02*
D03*
Y122587D02*
D03*
Y121012D02*
D03*
Y119437D02*
D03*
Y117862D02*
D03*
Y116287D02*
D03*
Y114713D02*
D03*
Y113138D02*
D03*
Y111563D02*
D03*
Y109988D02*
D03*
Y108413D02*
D03*
Y106839D02*
D03*
X64909D02*
D03*
Y108413D02*
D03*
Y109988D02*
D03*
Y111563D02*
D03*
Y113138D02*
D03*
Y114713D02*
D03*
Y116288D02*
D03*
Y117862D02*
D03*
Y119437D02*
D03*
Y121012D02*
D03*
Y122587D02*
D03*
Y124162D02*
D03*
D42*
X44339Y103591D02*
D03*
X45913D02*
D03*
X47488D02*
D03*
X49063D02*
D03*
X50638D02*
D03*
X52213D02*
D03*
X53787D02*
D03*
X55362D02*
D03*
X56937D02*
D03*
X58512D02*
D03*
X60087D02*
D03*
X61661D02*
D03*
Y127410D02*
D03*
X60087D02*
D03*
X58512D02*
D03*
X56937D02*
D03*
X55362D02*
D03*
X53787D02*
D03*
X52213D02*
D03*
X50638D02*
D03*
X49063D02*
D03*
X47488D02*
D03*
X45913D02*
D03*
X44339D02*
D03*
D43*
X53000Y115500D02*
D03*
D44*
X10000Y34500D02*
D03*
X26000D02*
D03*
X10000Y54500D02*
D03*
Y74500D02*
D03*
Y94500D02*
D03*
X25000Y130500D02*
D03*
X45000Y34500D02*
D03*
D45*
X80000Y84500D02*
D03*
D46*
X90000D02*
D03*
D47*
X34000Y101500D02*
D03*
X9000Y132500D02*
D03*
X33000Y130500D02*
D03*
X69000Y132500D02*
D03*
X45913Y122587D02*
D03*
X50638D02*
D03*
X55362D02*
D03*
X60087D02*
D03*
X45913Y117862D02*
D03*
X50638D02*
D03*
X55362D02*
D03*
X60087D02*
D03*
X45913Y113138D02*
D03*
X50638D02*
D03*
X55362D02*
D03*
X60087D02*
D03*
X45913Y108413D02*
D03*
X50638D02*
D03*
X55362D02*
D03*
X60087D02*
D03*
M02*
