G04 Layer_Physical_Order=2*
G04 Layer_Color=16711680*
%FSLAX25Y25*%
%MOIN*%
G70*
G01*
G75*
%ADD22C,0.00787*%
%ADD25C,0.04331*%
%ADD26R,0.08858X0.08858*%
%ADD27C,0.08858*%
%ADD28C,0.02700*%
G36*
X99000Y2431D02*
X98646Y2077D01*
X15610D01*
X15431Y2577D01*
X16352Y3333D01*
X17497Y4728D01*
X18348Y6320D01*
X18871Y8047D01*
X19048Y9843D01*
X18871Y11638D01*
X18348Y13365D01*
X17497Y14957D01*
X16352Y16352D01*
X14957Y17497D01*
X13365Y18348D01*
X11638Y18871D01*
X9843Y19048D01*
X8047Y18871D01*
X6320Y18348D01*
X4728Y17497D01*
X3333Y16352D01*
X2577Y15431D01*
X2077Y15610D01*
Y154390D01*
X2577Y154569D01*
X3333Y153648D01*
X4728Y152503D01*
X6320Y151653D01*
X8047Y151129D01*
X9843Y150952D01*
X11638Y151129D01*
X13365Y151653D01*
X14957Y152503D01*
X16352Y153648D01*
X17497Y155043D01*
X18348Y156635D01*
X18871Y158361D01*
X19048Y160158D01*
X18871Y161953D01*
X18348Y163680D01*
X17497Y165272D01*
X16352Y166667D01*
X15431Y167423D01*
X15610Y167923D01*
X99000D01*
X99000Y2431D01*
D02*
G37*
%LPC*%
G36*
X10000Y57478D02*
X9229Y57377D01*
X8511Y57079D01*
X7894Y56606D01*
X7421Y55989D01*
X7123Y55271D01*
X7022Y54500D01*
X7123Y53729D01*
X7421Y53011D01*
X7894Y52394D01*
X8511Y51921D01*
X9229Y51623D01*
X10000Y51522D01*
X10771Y51623D01*
X11489Y51921D01*
X12106Y52394D01*
X12579Y53011D01*
X12877Y53729D01*
X12978Y54500D01*
X12877Y55271D01*
X12579Y55989D01*
X12106Y56606D01*
X11489Y57079D01*
X10771Y57377D01*
X10000Y57478D01*
D02*
G37*
G36*
X60000Y54262D02*
X59285Y54168D01*
X58619Y53892D01*
X58047Y53453D01*
X57608Y52881D01*
X57332Y52215D01*
X57238Y51500D01*
X57332Y50785D01*
X57608Y50119D01*
X58047Y49547D01*
X58619Y49108D01*
X59285Y48832D01*
X60000Y48738D01*
X60715Y48832D01*
X61381Y49108D01*
X61953Y49547D01*
X62392Y50119D01*
X62668Y50785D01*
X62762Y51500D01*
X62668Y52215D01*
X62392Y52881D01*
X61953Y53453D01*
X61381Y53892D01*
X60715Y54168D01*
X60000Y54262D01*
D02*
G37*
G36*
X52500Y51010D02*
X51074Y50822D01*
X49745Y50272D01*
X48604Y49396D01*
X47728Y48255D01*
X47178Y46926D01*
X46990Y45500D01*
X47178Y44074D01*
X47728Y42745D01*
X48604Y41604D01*
X49745Y40729D01*
X51074Y40178D01*
X52500Y39990D01*
X53926Y40178D01*
X55255Y40729D01*
X56396Y41604D01*
X57272Y42745D01*
X57822Y44074D01*
X58010Y45500D01*
X57822Y46926D01*
X57272Y48255D01*
X56396Y49396D01*
X55255Y50272D01*
X53926Y50822D01*
X52500Y51010D01*
D02*
G37*
G36*
X40000Y71010D02*
X38574Y70822D01*
X37245Y70272D01*
X36104Y69396D01*
X35228Y68255D01*
X34678Y66926D01*
X34490Y65500D01*
X34678Y64074D01*
X35228Y62745D01*
X36104Y61604D01*
X37245Y60729D01*
X38574Y60178D01*
X40000Y59990D01*
X41426Y60178D01*
X42755Y60729D01*
X43896Y61604D01*
X44772Y62745D01*
X45322Y64074D01*
X45510Y65500D01*
X45322Y66926D01*
X44772Y68255D01*
X43896Y69396D01*
X42755Y70272D01*
X41426Y70822D01*
X40000Y71010D01*
D02*
G37*
G36*
X60000Y62262D02*
X59285Y62168D01*
X58619Y61892D01*
X58047Y61453D01*
X57608Y60881D01*
X57332Y60215D01*
X57238Y59500D01*
X57332Y58785D01*
X57608Y58119D01*
X58047Y57547D01*
X58619Y57108D01*
X59285Y56832D01*
X60000Y56738D01*
X60715Y56832D01*
X61381Y57108D01*
X61953Y57547D01*
X62392Y58119D01*
X62668Y58785D01*
X62762Y59500D01*
X62668Y60215D01*
X62392Y60881D01*
X61953Y61453D01*
X61381Y61892D01*
X60715Y62168D01*
X60000Y62262D01*
D02*
G37*
G36*
X40000Y58262D02*
X39285Y58168D01*
X38619Y57892D01*
X38047Y57453D01*
X37608Y56881D01*
X37332Y56215D01*
X37238Y55500D01*
X37332Y54785D01*
X37608Y54119D01*
X38047Y53547D01*
X38619Y53108D01*
X39285Y52832D01*
X40000Y52738D01*
X40715Y52832D01*
X41381Y53108D01*
X41953Y53547D01*
X42392Y54119D01*
X42668Y54785D01*
X42762Y55500D01*
X42668Y56215D01*
X42392Y56881D01*
X41953Y57453D01*
X41381Y57892D01*
X40715Y58168D01*
X40000Y58262D01*
D02*
G37*
G36*
Y51010D02*
X38574Y50822D01*
X37245Y50272D01*
X36104Y49396D01*
X35228Y48255D01*
X34678Y46926D01*
X34490Y45500D01*
X34678Y44074D01*
X35228Y42745D01*
X36104Y41604D01*
X37245Y40729D01*
X38574Y40178D01*
X40000Y39990D01*
X41426Y40178D01*
X42755Y40729D01*
X43896Y41604D01*
X44772Y42745D01*
X45322Y44074D01*
X45510Y45500D01*
X45322Y46926D01*
X44772Y48255D01*
X43896Y49396D01*
X42755Y50272D01*
X41426Y50822D01*
X40000Y51010D01*
D02*
G37*
G36*
X10000Y37478D02*
X9229Y37377D01*
X8511Y37079D01*
X7894Y36606D01*
X7421Y35989D01*
X7123Y35271D01*
X7022Y34500D01*
X7123Y33729D01*
X7421Y33011D01*
X7894Y32394D01*
X8511Y31921D01*
X9229Y31623D01*
X10000Y31522D01*
X10771Y31623D01*
X11489Y31921D01*
X12106Y32394D01*
X12579Y33011D01*
X12877Y33729D01*
X12978Y34500D01*
X12877Y35271D01*
X12579Y35989D01*
X12106Y36606D01*
X11489Y37079D01*
X10771Y37377D01*
X10000Y37478D01*
D02*
G37*
G36*
X29127Y34000D02*
X26500D01*
Y31373D01*
X26826Y31416D01*
X27596Y31735D01*
X28258Y32243D01*
X28765Y32904D01*
X29084Y33674D01*
X29127Y34000D01*
D02*
G37*
G36*
X25500D02*
X22873D01*
X22916Y33674D01*
X23235Y32904D01*
X23742Y32243D01*
X24404Y31735D01*
X25174Y31416D01*
X25500Y31373D01*
Y34000D01*
D02*
G37*
G36*
X26500Y37627D02*
Y35000D01*
X29127D01*
X29084Y35326D01*
X28765Y36096D01*
X28258Y36758D01*
X27596Y37265D01*
X26826Y37584D01*
X26500Y37627D01*
D02*
G37*
G36*
X25500D02*
X25174Y37584D01*
X24404Y37265D01*
X23742Y36758D01*
X23235Y36096D01*
X22916Y35326D01*
X22873Y35000D01*
X25500D01*
Y37627D01*
D02*
G37*
G36*
X45000Y37478D02*
X44229Y37377D01*
X43511Y37079D01*
X42894Y36606D01*
X42421Y35989D01*
X42123Y35271D01*
X42022Y34500D01*
X42123Y33729D01*
X42421Y33011D01*
X42894Y32394D01*
X43511Y31921D01*
X44229Y31623D01*
X45000Y31522D01*
X45771Y31623D01*
X46489Y31921D01*
X47106Y32394D01*
X47579Y33011D01*
X47877Y33729D01*
X47978Y34500D01*
X47877Y35271D01*
X47579Y35989D01*
X47106Y36606D01*
X46489Y37079D01*
X45771Y37377D01*
X45000Y37478D01*
D02*
G37*
G36*
X52500Y71010D02*
X51074Y70822D01*
X49745Y70272D01*
X48604Y69396D01*
X47728Y68255D01*
X47178Y66926D01*
X46990Y65500D01*
X47178Y64074D01*
X47728Y62745D01*
X48604Y61604D01*
X49745Y60729D01*
X51074Y60178D01*
X52500Y59990D01*
X53926Y60178D01*
X55255Y60729D01*
X56396Y61604D01*
X57272Y62745D01*
X57822Y64074D01*
X58010Y65500D01*
X57822Y66926D01*
X57272Y68255D01*
X56396Y69396D01*
X55255Y70272D01*
X53926Y70822D01*
X52500Y71010D01*
D02*
G37*
G36*
X60587Y124883D02*
Y123087D01*
X62383D01*
X62300Y123504D01*
X61781Y124281D01*
X61004Y124800D01*
X60587Y124883D01*
D02*
G37*
G36*
X45413D02*
X44997Y124800D01*
X44219Y124281D01*
X43700Y123504D01*
X43617Y123087D01*
X45413D01*
Y124883D01*
D02*
G37*
G36*
X62383Y107913D02*
X60587D01*
Y106117D01*
X61004Y106200D01*
X61781Y106719D01*
X62300Y107497D01*
X62383Y107913D01*
D02*
G37*
G36*
X69000Y134679D02*
X68166Y134513D01*
X67459Y134041D01*
X66987Y133334D01*
X66821Y132500D01*
X66900Y132103D01*
X66501Y131704D01*
X34766D01*
X34541Y132041D01*
X33834Y132513D01*
X33000Y132679D01*
X32166Y132513D01*
X31459Y132041D01*
X30987Y131334D01*
X30821Y130500D01*
X30987Y129666D01*
X31459Y128959D01*
X32166Y128487D01*
X33000Y128321D01*
X33834Y128487D01*
X34541Y128959D01*
X34766Y129296D01*
X67000D01*
X67000Y129296D01*
X67461Y129387D01*
X67852Y129648D01*
X68603Y130400D01*
X69000Y130321D01*
X69834Y130487D01*
X70541Y130959D01*
X71013Y131666D01*
X71179Y132500D01*
X71013Y133334D01*
X70541Y134041D01*
X69834Y134513D01*
X69000Y134679D01*
D02*
G37*
G36*
X25000Y133478D02*
X24229Y133377D01*
X23511Y133079D01*
X22894Y132606D01*
X22421Y131989D01*
X22123Y131271D01*
X22022Y130500D01*
X22123Y129729D01*
X22421Y129011D01*
X22894Y128394D01*
X23511Y127921D01*
X24229Y127623D01*
X25000Y127522D01*
X25771Y127623D01*
X26489Y127921D01*
X27106Y128394D01*
X27579Y129011D01*
X27877Y129729D01*
X27978Y130500D01*
X27877Y131271D01*
X27579Y131989D01*
X27106Y132606D01*
X26489Y133079D01*
X25771Y133377D01*
X25000Y133478D01*
D02*
G37*
G36*
X59587Y124883D02*
X59170Y124800D01*
X58392Y124281D01*
X58007Y123704D01*
X57442D01*
X57056Y124281D01*
X56279Y124800D01*
X55862Y124883D01*
Y122587D01*
X54862D01*
Y124883D01*
X54445Y124800D01*
X53668Y124281D01*
X53282Y123704D01*
X52717D01*
X52332Y124281D01*
X51555Y124800D01*
X51138Y124883D01*
Y122587D01*
X50138D01*
Y124883D01*
X49721Y124800D01*
X48943Y124281D01*
X48558Y123704D01*
X47993D01*
X47608Y124281D01*
X46830Y124800D01*
X46413Y124883D01*
Y122587D01*
X45913D01*
Y122087D01*
X43617D01*
X43700Y121670D01*
X44219Y120892D01*
X44796Y120507D01*
Y119942D01*
X44219Y119556D01*
X43700Y118779D01*
X43617Y118362D01*
X45913D01*
Y117362D01*
X43617D01*
X43700Y116945D01*
X44219Y116168D01*
X44796Y115783D01*
Y115217D01*
X44219Y114832D01*
X43700Y114055D01*
X43617Y113638D01*
X45913D01*
Y112638D01*
X43617D01*
X43700Y112221D01*
X44219Y111444D01*
X44796Y111058D01*
Y110493D01*
X44219Y110108D01*
X43700Y109330D01*
X43617Y108913D01*
X45913D01*
Y108413D01*
X46413D01*
Y106117D01*
X46830Y106200D01*
X47608Y106719D01*
X47993Y107296D01*
X48558D01*
X48943Y106719D01*
X49721Y106200D01*
X50138Y106117D01*
Y108413D01*
X51138D01*
Y106117D01*
X51555Y106200D01*
X52332Y106719D01*
X52717Y107296D01*
X53282D01*
X53668Y106719D01*
X54445Y106200D01*
X54862Y106117D01*
Y108413D01*
X55862D01*
Y106117D01*
X56279Y106200D01*
X57056Y106719D01*
X57442Y107296D01*
X58007D01*
X58392Y106719D01*
X59170Y106200D01*
X59587Y106117D01*
Y108413D01*
X60087D01*
Y108913D01*
X62383D01*
X62300Y109330D01*
X61781Y110108D01*
X61204Y110493D01*
Y111058D01*
X61781Y111444D01*
X62300Y112221D01*
X62383Y112638D01*
X60087D01*
Y113638D01*
X62383D01*
X62300Y114055D01*
X61781Y114832D01*
X61204Y115217D01*
Y115783D01*
X61781Y116168D01*
X62300Y116945D01*
X62383Y117362D01*
X60087D01*
Y118362D01*
X62383D01*
X62300Y118779D01*
X61781Y119556D01*
X61204Y119942D01*
Y120507D01*
X61781Y120892D01*
X62300Y121670D01*
X62383Y122087D01*
X60087D01*
Y122587D01*
X59587D01*
Y124883D01*
D02*
G37*
G36*
X45413Y107913D02*
X43617D01*
X43700Y107497D01*
X44219Y106719D01*
X44997Y106200D01*
X45413Y106117D01*
Y107913D01*
D02*
G37*
G36*
X90500Y89910D02*
Y85000D01*
X95410D01*
X95289Y85917D01*
X94742Y87238D01*
X93872Y88372D01*
X92738Y89242D01*
X91417Y89789D01*
X90500Y89910D01*
D02*
G37*
G36*
X95410Y84000D02*
X90500D01*
Y79090D01*
X91417Y79211D01*
X92738Y79758D01*
X93872Y80628D01*
X94742Y81762D01*
X95289Y83083D01*
X95410Y84000D01*
D02*
G37*
G36*
X10000Y77478D02*
X9229Y77377D01*
X8511Y77079D01*
X7894Y76606D01*
X7421Y75989D01*
X7123Y75271D01*
X7022Y74500D01*
X7123Y73729D01*
X7421Y73011D01*
X7894Y72394D01*
X8511Y71921D01*
X9229Y71623D01*
X10000Y71522D01*
X10771Y71623D01*
X11489Y71921D01*
X12106Y72394D01*
X12579Y73011D01*
X12877Y73729D01*
X12978Y74500D01*
X12877Y75271D01*
X12579Y75989D01*
X12106Y76606D01*
X11489Y77079D01*
X10771Y77377D01*
X10000Y77478D01*
D02*
G37*
G36*
X9000Y134679D02*
X8166Y134513D01*
X7459Y134041D01*
X6987Y133334D01*
X6821Y132500D01*
X6987Y131666D01*
X7459Y130959D01*
X7796Y130734D01*
Y126500D01*
X7796Y126500D01*
X7887Y126039D01*
X8149Y125648D01*
X31900Y101897D01*
X31821Y101500D01*
X31987Y100666D01*
X32459Y99959D01*
X33166Y99487D01*
X34000Y99321D01*
X34834Y99487D01*
X35541Y99959D01*
X36013Y100666D01*
X36179Y101500D01*
X36013Y102334D01*
X35541Y103041D01*
X34834Y103513D01*
X34000Y103679D01*
X33603Y103600D01*
X10204Y126999D01*
Y130734D01*
X10541Y130959D01*
X11013Y131666D01*
X11179Y132500D01*
X11013Y133334D01*
X10541Y134041D01*
X9834Y134513D01*
X9000Y134679D01*
D02*
G37*
G36*
X10000Y97478D02*
X9229Y97377D01*
X8511Y97079D01*
X7894Y96606D01*
X7421Y95989D01*
X7123Y95271D01*
X7022Y94500D01*
X7123Y93729D01*
X7421Y93011D01*
X7894Y92394D01*
X8511Y91921D01*
X9229Y91623D01*
X10000Y91522D01*
X10771Y91623D01*
X11489Y91921D01*
X12106Y92394D01*
X12579Y93011D01*
X12877Y93729D01*
X12978Y94500D01*
X12877Y95271D01*
X12579Y95989D01*
X12106Y96606D01*
X11489Y97079D01*
X10771Y97377D01*
X10000Y97478D01*
D02*
G37*
G36*
X89500Y89910D02*
X88583Y89789D01*
X87262Y89242D01*
X86128Y88372D01*
X85716Y87836D01*
X85216Y88006D01*
Y89717D01*
X74783D01*
Y79283D01*
X85216D01*
Y80994D01*
X85716Y81164D01*
X86128Y80628D01*
X87262Y79758D01*
X88583Y79211D01*
X89500Y79090D01*
Y84500D01*
Y89910D01*
D02*
G37*
%LPD*%
D22*
X34000Y101500D02*
Y101500D01*
X9000Y126500D02*
X34000Y101500D01*
X9000Y126500D02*
Y132500D01*
X33000Y130500D02*
X67000D01*
X69000Y132500D01*
X45913Y108413D02*
Y108413D01*
X50638Y113138D01*
Y117862D01*
Y113138D02*
X55362D01*
X55362Y117862D02*
X60087Y122587D01*
X55362Y117862D02*
X55362D01*
X55362Y113138D02*
X60087Y108413D01*
X45913Y122587D02*
X50638Y117862D01*
X55362D01*
D25*
X10000Y34500D02*
D03*
X26000D02*
D03*
X10000Y54500D02*
D03*
Y74500D02*
D03*
Y94500D02*
D03*
X25000Y130500D02*
D03*
X45000Y34500D02*
D03*
D26*
X80000Y84500D02*
D03*
D27*
X90000D02*
D03*
D28*
X34000Y101500D02*
D03*
X9000Y132500D02*
D03*
X33000Y130500D02*
D03*
X69000Y132500D02*
D03*
X45913Y122587D02*
D03*
X50638D02*
D03*
X55362D02*
D03*
X60087D02*
D03*
X45913Y117862D02*
D03*
X50638D02*
D03*
X55362D02*
D03*
X60087D02*
D03*
X45913Y113138D02*
D03*
X50638D02*
D03*
X55362D02*
D03*
X60087D02*
D03*
X45913Y108413D02*
D03*
X50638D02*
D03*
X55362D02*
D03*
X60087D02*
D03*
M02*
